<svg width="276" height="60" viewBox="0 0 276 60" fill="none" xmlns="http://www.w3.org/2000/svg">
<circle cx="30" cy="30" r="30" fill="#3601E9" fill-opacity="0.2"/>
<circle cx="246" cy="30" r="30" fill="#3601E9" fill-opacity="0.2"/>
<path fill-rule="evenodd" clip-rule="evenodd" d="M47.2965 35C45.1298 42.5086 38.2062 48 30 48C20.0589 48 12 39.9411 12 30C12 20.0589 20.0589 12 30 12C38.2062 12 45.1298 17.4914 47.2965 25H228.704C230.87 17.4914 237.794 12 246 12C255.941 12 264 20.0589 264 30C264 39.9411 255.941 48 246 48C237.794 48 230.87 42.5086 228.704 35H47.2965Z" fill="#3C01F3"/>
</svg>
