<?xml version="1.0" encoding="utf-8"?>
<!-- Generator: Adobe Illustrator 25.3.1, SVG Export Plug-In . SVG Version: 6.00 Build 0)  -->
<svg version="1.1" id="Layer_1" xmlns="http://www.w3.org/2000/svg" xmlns:xlink="http://www.w3.org/1999/xlink" x="0px" y="0px"
	 viewBox="0 0 500 335.78" style="enable-background:new 0 0 500 335.78;" xml:space="preserve">
<style type="text/css">
	.st0{fill:#0E003F;}
	.st1{fill:#1A42AB;}
	.st2{fill:#FFFFFF;}
	.st3{fill:#3000E0;}
	.st4{fill:#FCFCFC;}
	.st5{fill:#62CCF4;}
	.st6{fill:#360689;}
	.st7{fill:#00BF6F;}
	.st8{fill:none;stroke:#00BF6F;stroke-width:52;stroke-miterlimit:10;}
	.st9{fill:none;stroke:#00BF6F;stroke-width:52;stroke-linecap:round;stroke-linejoin:round;stroke-miterlimit:10;}
	.st10{fill:none;stroke:#00BF6F;stroke-width:42;stroke-linecap:round;stroke-linejoin:round;stroke-miterlimit:10;}
	.st11{fill:none;stroke:#00BF6F;stroke-width:42;stroke-miterlimit:10;}
</style>
<g>
	<path class="st3" d="M274.19,157.29c-8.86,0.58-16.5-6.13-17.07-14.98c-0.58-8.86,6.13-16.5,14.99-17.07
		c8.85-0.58,16.49,6.13,17.06,14.99C289.74,149.07,283.03,156.71,274.19,157.29z"/>
	<path class="st3" d="M397.25,71.03C374.61,28.79,330.04,0,278.85,0c-50.75,0-95.02,28.32-117.83,69.97
		c-9.06-1.83-18.39-2.75-27.85-2.67c-36.2,0.25-70.05,14.69-95.33,40.66C13.44,133.06,0,166.29,0,201.53s13.44,68.47,37.86,93.57
		c0.76,0.79,1.54,1.57,2.31,2.32c24.4,23.92,47.08,36.75,79.9,36.75c49.47,0,70.13-12.32,98.2-90.85l-0.02-1.27l-13.93-5.49
		l-1.18-0.46c0,0,0,0,0-0.01h-0.01l-1.27-0.5l-28.84-11.37c0.21-0.56,0.43-1.09,0.66-1.62c0.03-0.08,0.07-0.18,0.11-0.27
		c0.18-0.4,0.35-0.81,0.54-1.21c0.05-0.12,0.1-0.25,0.18-0.37c0.22-0.46,0.42-0.92,0.66-1.37c0.01-0.06,0.05-0.12,0.08-0.18
		c0.24-0.49,0.5-0.98,0.74-1.46c0.29-0.54,0.57-1.04,0.86-1.56c0.26-0.45,0.53-0.92,0.78-1.37c0.27-0.42,0.53-0.86,0.79-1.26
		c0.13-0.23,0.28-0.42,0.4-0.64c0.22-0.33,0.44-0.68,0.67-1c0.12-0.19,0.25-0.36,0.37-0.55c0.14-0.2,0.28-0.4,0.42-0.6
		c0.21-0.3,0.42-0.6,0.64-0.9c0.5-0.67,1.02-1.34,1.54-1.99c0.14-0.18,0.3-0.37,0.44-0.55c0.3-0.38,0.62-0.75,0.95-1.13
		c0.33-0.39,0.66-0.76,1-1.15c0.01-0.02,0.02-0.02,0.03-0.04c0.34-0.36,0.66-0.71,1-1.06c0.13-0.14,0.27-0.3,0.42-0.45
		c0.28-0.29,0.57-0.58,0.86-0.88c0.36-0.35,0.72-0.7,1.07-1.04c0.21-0.2,0.41-0.37,0.61-0.57c1.27-1.16,2.58-2.27,3.92-3.31
		c0.38-0.32,0.78-0.62,1.18-0.9c0.09-0.08,0.19-0.14,0.27-0.22c0.36-0.26,0.72-0.52,1.08-0.76c0.19-0.14,0.37-0.28,0.57-0.41
		c0.32-0.22,0.64-0.44,0.98-0.65c0.21-0.14,0.41-0.28,0.63-0.41c0.18-0.12,0.37-0.24,0.57-0.36c0.33-0.22,0.67-0.43,1.02-0.63
		l0.41-0.25c0.37-0.23,0.75-0.44,1.13-0.66c0.98-0.55,1.97-1.07,2.97-1.58c0.5-0.25,1-0.47,1.51-0.71c0.51-0.24,1-0.47,1.52-0.68
		c0.52-0.23,1.02-0.43,1.55-0.65c0.41-0.17,0.83-0.33,1.24-0.49c0.22-0.08,0.44-0.18,0.65-0.25c0.39-0.14,0.79-0.29,1.19-0.42
		c0.01,0,0.03-0.01,0.06-0.01c0.53,8.94,1.91,16.67,3.22,22.37c1.39,6.1,2.72,9.84,2.83,10.15l-0.03-0.4c0-0.11-0.02-0.22-0.02-0.33
		c-0.08-1.17-0.14-2.36-0.2-3.58c-0.03-0.62-0.06-1.24-0.09-1.88c-0.04-1.25-0.08-2.55-0.1-3.86c-0.01-0.67-0.02-1.33-0.03-2.01
		c-0.01-0.78-0.01-1.57-0.01-2.36v-0.45c0-0.43,0.01-0.88,0.02-1.33c0.03-2.83,0.11-5.76,0.28-8.8c0.11-2.25,0.29-4.56,0.5-6.92
		c0.07-0.82,0.15-1.63,0.23-2.45c1.52-14.93,4.92-31.66,11.63-48.7c21.5-54.56,69.91-61.56,69.91-61.56s30.61,38.13,9.11,92.69
		c-3.37,8.52-7.28,16.41-11.48,23.67c-4.2,7.27-8.7,13.88-13.23,19.86c-1.17,1.55-2.35,3.06-3.53,4.51v0.01
		c-0.33,0.4-0.66,0.81-0.98,1.21c-0.78,0.94-1.56,1.86-2.32,2.77c-0.91,1.07-1.81,2.11-2.7,3.12c-0.45,0.51-0.9,1.01-1.34,1.51
		c-0.44,0.49-0.89,0.97-1.33,1.45c-2.21,2.42-4.37,4.66-6.44,6.7c-0.41,0.42-0.83,0.83-1.24,1.23c-0.42,0.4-0.83,0.78-1.23,1.17
		c-0.4,0.4-0.81,0.77-1.2,1.16c-0.25,0.24-0.5,0.47-0.75,0.7c0.39-0.2,5.87-3.07,13.38-8.58c3.99-2.93,8.57-6.63,13.26-11.06
		c0.01,0.02,0.04,0.06,0.05,0.1c0.04,0.05,0.07,0.13,0.1,0.21c0.11,0.21,0.24,0.43,0.34,0.64c0.15,0.3,0.3,0.59,0.44,0.9
		c0.18,0.35,0.34,0.68,0.5,1.03c0.05,0.08,0.09,0.18,0.13,0.28c0.2,0.39,0.37,0.82,0.56,1.22c0.08,0.18,0.15,0.34,0.23,0.53
		c0.14,0.35,0.29,0.7,0.43,1.06c0.88,2.13,1.62,4.32,2.26,6.53c0.09,0.33,0.19,0.65,0.26,0.99c0.08,0.29,0.17,0.6,0.24,0.89
		c0.05,0.23,0.11,0.44,0.15,0.66c0.09,0.38,0.19,0.75,0.26,1.15c0.06,0.22,0.11,0.44,0.15,0.68c0.07,0.34,0.15,0.67,0.21,1.03
		c0.06,0.28,0.11,0.56,0.15,0.85c0.22,1.15,0.39,2.32,0.53,3.49c0.07,0.56,0.11,1.11,0.18,1.68c0.05,0.56,0.1,1.11,0.13,1.68
		c0.07,1.04,0.11,2.09,0.13,3.13v0.51c0.01,0.5,0,0.97,0,1.46v0.06c-0.01,0.5-0.03,1.01-0.05,1.52c-0.01,0.13-0.01,0.27-0.01,0.4
		c-0.03,0.47-0.06,0.95-0.08,1.42c-0.04,0.5-0.07,0.97-0.12,1.47c-0.02,0.18-0.04,0.34-0.05,0.53l-0.15,1.39
		c-0.01,0.02-0.01,0.03-0.01,0.04c-0.07,0.58-0.15,1.14-0.25,1.71c0.01,0.06,0,0.12-0.02,0.19c-0.07,0.41-0.13,0.84-0.22,1.26
		c-0.03,0.23-0.07,0.44-0.12,0.67c-0.08,0.49-0.19,0.98-0.28,1.46c-0.11,0.53-0.24,1.04-0.35,1.55c-0.14,0.58-0.29,1.14-0.44,1.71
		c-0.14,0.53-0.3,1.05-0.45,1.58c-0.01,0.06-0.02,0.12-0.04,0.2c-0.15,0.49-0.31,0.97-0.46,1.45c-0.04,0.13-0.08,0.25-0.13,0.38
		c-0.13,0.41-0.28,0.85-0.42,1.27c-0.03,0.08-0.07,0.17-0.1,0.26c-0.2,0.55-0.41,1.09-0.62,1.63l-30.12-11.87l-0.21-0.08l-14.71-5.8
		c-2.5,2.93-32.21,82.04,11.69,82.04c36.37,0,108.69,0.99,108.69,0.99c74.02,0,134.23-60.23,134.23-134.24
		C500,138.35,456.14,85.24,397.25,71.03z"/>
</g>
</svg>
