<svg width="320" height="214" viewBox="0 0 320 214" fill="none" xmlns="http://www.w3.org/2000/svg">
<path d="M175.483 100.266C169.815 100.625 164.928 96.3548 164.547 90.708C164.186 85.0612 168.473 80.1926 174.141 79.8135C179.81 79.4543 184.697 83.7243 185.058 89.3711C185.438 95.0379 181.132 99.9065 175.483 100.266Z" fill="white"/>
<path d="M254.242 45.2942C239.74 18.3571 211.217 0 178.468 0C145.979 0 117.657 18.0578 103.055 44.6158C97.246 43.4585 91.297 42.8599 85.2279 42.9197C62.0531 43.0793 40.4006 52.2779 24.2163 68.8392C8.5929 84.8218 0 106.012 0 128.48C0 150.947 8.5929 172.138 24.2364 188.14C24.7171 188.639 25.2178 189.138 25.7186 189.617C41.342 204.861 55.8438 213.042 76.8553 213.042C108.523 213.042 121.743 205.201 139.71 155.118L139.69 154.299L130.776 150.808L130.015 150.508L129.194 150.189L110.726 142.946C110.866 142.587 111.007 142.248 111.147 141.908C111.167 141.849 111.187 141.789 111.227 141.729C111.347 141.469 111.447 141.21 111.567 140.951C111.608 140.871 111.628 140.791 111.688 140.711C111.828 140.412 111.968 140.133 112.108 139.833C112.108 139.793 112.148 139.753 112.168 139.714C112.329 139.394 112.489 139.095 112.649 138.776C112.829 138.437 113.01 138.117 113.19 137.778C113.35 137.479 113.53 137.199 113.691 136.9C113.871 136.621 114.031 136.361 114.191 136.102C114.271 135.962 114.372 135.823 114.452 135.703C114.592 135.483 114.732 135.264 114.872 135.064C114.953 134.945 115.033 134.825 115.113 134.725C115.213 134.605 115.293 134.466 115.393 134.346C115.533 134.147 115.674 133.967 115.794 133.767C116.114 133.348 116.455 132.909 116.775 132.49C116.875 132.371 116.976 132.251 117.056 132.151C117.256 131.912 117.456 131.672 117.657 131.433C117.877 131.174 118.077 130.954 118.298 130.695C118.298 130.675 118.318 130.675 118.318 130.675C118.538 130.435 118.738 130.216 118.959 129.996C119.039 129.896 119.139 129.797 119.239 129.697C119.419 129.517 119.6 129.338 119.78 129.138C120.02 128.919 120.24 128.699 120.461 128.48C120.601 128.36 120.721 128.24 120.841 128.121C121.663 127.382 122.484 126.664 123.345 126.006C123.585 125.806 123.846 125.607 124.106 125.427C124.166 125.367 124.226 125.327 124.287 125.287C124.527 125.128 124.747 124.968 124.988 124.808C125.108 124.709 125.228 124.629 125.348 124.549C125.548 124.409 125.749 124.27 125.969 124.13C126.109 124.03 126.229 123.95 126.37 123.871C126.49 123.791 126.61 123.711 126.73 123.631C126.951 123.491 127.151 123.352 127.391 123.232L127.652 123.072C127.892 122.933 128.132 122.793 128.373 122.653C128.994 122.314 129.635 121.975 130.276 121.656C130.596 121.496 130.916 121.356 131.237 121.197C131.557 121.037 131.878 120.898 132.198 120.758C132.519 120.618 132.859 120.479 133.18 120.339C133.44 120.239 133.701 120.119 133.981 120.02C134.121 119.96 134.262 119.9 134.402 119.86C134.662 119.76 134.902 119.68 135.163 119.581C135.163 119.581 135.183 119.581 135.203 119.581C135.543 125.287 136.425 130.216 137.266 133.847C138.167 137.738 139.009 140.113 139.069 140.312L139.049 140.053C139.049 139.973 139.029 139.913 139.029 139.833C138.969 139.095 138.929 138.317 138.908 137.559C138.888 137.16 138.868 136.76 138.848 136.361C138.828 135.563 138.788 134.745 138.788 133.907C138.788 133.488 138.768 133.049 138.768 132.63C138.768 132.131 138.768 131.632 138.768 131.114V130.814C138.768 130.535 138.768 130.256 138.788 129.956C138.808 128.161 138.868 126.285 138.969 124.349C139.049 122.913 139.149 121.436 139.289 119.94C139.329 119.421 139.389 118.902 139.429 118.383C140.391 108.866 142.574 98.1906 146.88 87.3359C160.641 52.5572 191.628 48.0876 191.628 48.0876C191.628 48.0876 211.217 72.3909 197.456 107.19C195.293 112.617 192.789 117.645 190.105 122.274C187.421 126.903 184.537 131.134 181.633 134.945C180.891 135.922 180.13 136.9 179.369 137.818C179.149 138.077 178.949 138.337 178.748 138.596C178.248 139.195 177.747 139.773 177.266 140.352C176.685 141.03 176.104 141.689 175.543 142.347C175.243 142.667 174.963 142.986 174.682 143.305C174.402 143.624 174.121 143.924 173.821 144.223C172.399 145.759 171.017 147.196 169.695 148.493C169.434 148.772 169.174 149.012 168.893 149.271C168.613 149.531 168.373 149.77 168.112 150.01C167.852 150.269 167.592 150.508 167.351 150.748C167.191 150.907 167.031 151.047 166.87 151.187C167.131 151.067 170.636 149.231 175.423 145.72C177.987 143.844 180.912 141.489 183.916 138.676C183.916 138.696 183.936 138.716 183.956 138.736C183.976 138.776 183.996 138.816 184.016 138.876C184.096 139.015 184.176 139.155 184.237 139.275C184.337 139.474 184.437 139.654 184.517 139.853C184.637 140.073 184.737 140.292 184.837 140.512C184.877 140.572 184.898 140.631 184.918 140.691C185.038 140.951 185.158 141.21 185.278 141.469C185.338 141.589 185.378 141.689 185.418 141.809C185.518 142.028 185.599 142.248 185.699 142.487C186.26 143.844 186.74 145.241 187.141 146.657C187.201 146.877 187.261 147.076 187.301 147.296C187.361 147.475 187.401 147.675 187.461 147.855C187.501 147.994 187.541 148.134 187.562 148.274C187.622 148.513 187.682 148.752 187.722 149.012C187.762 149.152 187.802 149.291 187.822 149.451C187.862 149.67 187.922 149.87 187.962 150.109C188.002 150.289 188.042 150.468 188.062 150.648C188.202 151.386 188.323 152.125 188.403 152.863C188.443 153.222 188.483 153.581 188.523 153.94C188.563 154.299 188.583 154.659 188.603 155.018C188.643 155.676 188.683 156.355 188.683 157.013V157.332C188.683 157.652 188.683 157.951 188.683 158.27V158.31C188.683 158.629 188.663 158.949 188.643 159.268C188.643 159.348 188.643 159.447 188.643 159.527C188.623 159.827 188.603 160.126 188.583 160.445C188.563 160.764 188.543 161.064 188.503 161.383C188.483 161.503 188.483 161.602 188.463 161.722L188.363 162.62C188.363 162.64 188.363 162.64 188.363 162.64C188.323 162.999 188.263 163.358 188.202 163.737C188.202 163.777 188.202 163.817 188.182 163.857C188.142 164.117 188.102 164.396 188.042 164.655C188.022 164.795 188.002 164.935 187.962 165.074C187.902 165.394 187.842 165.693 187.782 166.012C187.702 166.351 187.622 166.671 187.562 166.99C187.461 167.349 187.381 167.708 187.281 168.087C187.181 168.426 187.081 168.766 186.981 169.085C186.981 169.125 186.961 169.165 186.961 169.205C186.86 169.524 186.76 169.823 186.66 170.123C186.64 170.202 186.6 170.282 186.58 170.362C186.5 170.621 186.4 170.901 186.3 171.18C186.28 171.24 186.26 171.28 186.24 171.34C186.119 171.679 185.979 172.038 185.839 172.377L166.57 164.815L166.43 164.755L157.016 161.064C155.413 162.939 136.405 213.361 164.507 213.361C187.782 213.361 234.071 214 234.071 214C281.442 214 319.98 175.61 319.98 128.42C319.98 88.1939 291.918 54.3331 254.242 45.2942Z" fill="white"/>
</svg>
