<svg width="641" height="47" viewBox="0 0 641 47" fill="none" xmlns="http://www.w3.org/2000/svg">
<g clip-path="url(#clip0_21_2)">
<rect width="641" height="47" fill="#110042"/>
<g filter="url(#filter0_f_21_2)">
<ellipse cx="600.5" cy="109" rx="216.5" ry="216" fill="url(#paint0_linear_21_2)" fill-opacity="0.4"/>
</g>
<g filter="url(#filter1_f_21_2)">
<ellipse cx="600.5" cy="109" rx="96.5" ry="96" fill="#0E003F"/>
</g>
<g filter="url(#filter2_f_21_2)">
<circle cx="36.5" cy="-0.5" r="96.5" fill="url(#paint1_linear_21_2)"/>
</g>
<g clip-path="url(#clip1_21_2)">
<path d="M522.521 20.0048V30.1682H519.361V25.1009L517.803 30.1682H515.087L513.529 25.1009V30.1682H510.356V20.0048H514.244L516.474 26.1057L518.647 20.0048H522.521Z" fill="white"/>
<path d="M525.554 21.426C525.001 21.426 524.558 21.2776 524.224 20.9809C523.891 20.6843 523.724 20.311 523.724 19.8612C523.724 19.4019 523.891 19.0239 524.224 18.7272C524.558 18.4209 525.001 18.2678 525.554 18.2678C526.097 18.2678 526.535 18.4209 526.869 18.7272C527.202 19.0239 527.369 19.4019 527.369 19.8612C527.369 20.311 527.202 20.6843 526.869 20.9809C526.535 21.2776 526.097 21.426 525.554 21.426ZM527.126 22.0719V30.1682H523.952V22.0719H527.126Z" fill="white"/>
<path d="M532.147 30.2687C531.385 30.2687 530.708 30.1443 530.117 29.8955C529.536 29.6467 529.074 29.3021 528.731 28.8619C528.388 28.4217 528.192 27.924 528.145 27.369H531.19C531.228 27.6082 531.328 27.7853 531.49 27.9001C531.661 28.015 531.876 28.0724 532.133 28.0724C532.295 28.0724 532.424 28.0389 532.519 27.9719C532.614 27.8953 532.662 27.8044 532.662 27.6991C532.662 27.5173 532.562 27.3881 532.362 27.3116C532.162 27.235 531.823 27.1489 531.347 27.0532C530.765 26.9383 530.284 26.8139 529.903 26.6799C529.531 26.546 529.203 26.3163 528.917 25.9909C528.64 25.6655 528.502 25.2157 528.502 24.6415C528.502 24.1439 528.631 23.6941 528.888 23.2921C529.155 22.8806 529.546 22.56 530.06 22.3303C530.575 22.0911 531.199 21.9714 531.933 21.9714C533.019 21.9714 533.867 22.2394 534.477 22.7753C535.097 23.3113 535.468 24.0099 535.592 24.8712H532.776C532.729 24.6511 532.629 24.4836 532.476 24.3688C532.324 24.2443 532.119 24.1821 531.861 24.1821C531.699 24.1821 531.575 24.2156 531.49 24.2826C531.404 24.34 531.361 24.431 531.361 24.5554C531.361 24.7181 531.461 24.8425 531.661 24.9286C531.861 25.0052 532.181 25.0865 532.619 25.1726C533.2 25.2875 533.691 25.4167 534.091 25.5602C534.492 25.7038 534.839 25.9526 535.135 26.3067C535.43 26.6512 535.578 27.1297 535.578 27.7422C535.578 28.2207 535.44 28.6514 535.163 29.0342C534.887 29.417 534.487 29.7184 533.963 29.9386C533.448 30.1587 532.843 30.2687 532.147 30.2687Z" fill="white"/>
<path d="M540.425 30.2687C539.663 30.2687 538.986 30.1443 538.396 29.8955C537.814 29.6467 537.352 29.3021 537.009 28.8619C536.666 28.4217 536.471 27.924 536.423 27.369H539.468C539.506 27.6082 539.606 27.7853 539.768 27.9001C539.939 28.015 540.154 28.0724 540.411 28.0724C540.573 28.0724 540.702 28.0389 540.797 27.9719C540.892 27.8953 540.94 27.8044 540.94 27.6991C540.94 27.5173 540.84 27.3881 540.64 27.3116C540.44 27.235 540.101 27.1489 539.625 27.0532C539.044 26.9383 538.562 26.8139 538.181 26.6799C537.809 26.546 537.481 26.3163 537.195 25.9909C536.918 25.6655 536.78 25.2157 536.78 24.6415C536.78 24.1439 536.909 23.6941 537.166 23.2921C537.433 22.8806 537.824 22.56 538.338 22.3303C538.853 22.0911 539.477 21.9714 540.211 21.9714C541.297 21.9714 542.146 22.2394 542.756 22.7753C543.375 23.3113 543.747 24.0099 543.871 24.8712H541.054C541.007 24.6511 540.907 24.4836 540.754 24.3688C540.602 24.2443 540.397 24.1821 540.14 24.1821C539.978 24.1821 539.854 24.2156 539.768 24.2826C539.682 24.34 539.639 24.431 539.639 24.5554C539.639 24.7181 539.739 24.8425 539.939 24.9286C540.14 25.0052 540.459 25.0865 540.897 25.1726C541.479 25.2875 541.969 25.4167 542.37 25.5602C542.77 25.7038 543.118 25.9526 543.413 26.3067C543.709 26.6512 543.856 27.1297 543.856 27.7422C543.856 28.2207 543.718 28.6514 543.442 29.0342C543.165 29.417 542.765 29.7184 542.241 29.9386C541.726 30.1587 541.121 30.2687 540.425 30.2687Z" fill="white"/>
<path d="M546.717 21.426C546.164 21.426 545.721 21.2776 545.387 20.9809C545.054 20.6843 544.887 20.311 544.887 19.8612C544.887 19.4019 545.054 19.0239 545.387 18.7272C545.721 18.4209 546.164 18.2678 546.717 18.2678C547.26 18.2678 547.698 18.4209 548.032 18.7272C548.365 19.0239 548.532 19.4019 548.532 19.8612C548.532 20.311 548.365 20.6843 548.032 20.9809C547.698 21.2776 547.26 21.426 546.717 21.426ZM548.289 22.0719V30.1682H545.116V22.0719H548.289Z" fill="white"/>
<path d="M553.553 30.2687C552.743 30.2687 552.014 30.1012 551.366 29.7663C550.718 29.4313 550.208 28.9528 549.837 28.3308C549.475 27.6991 549.294 26.9623 549.294 26.1201C549.294 25.2779 549.475 24.5458 549.837 23.9237C550.208 23.2921 550.718 22.8088 551.366 22.4739C552.014 22.1389 552.743 21.9714 553.553 21.9714C554.363 21.9714 555.092 22.1389 555.741 22.4739C556.389 22.8088 556.894 23.2921 557.256 23.9237C557.627 24.5458 557.813 25.2779 557.813 26.1201C557.813 26.9623 557.627 27.6991 557.256 28.3308C556.894 28.9528 556.389 29.4313 555.741 29.7663C555.092 30.1012 554.363 30.2687 553.553 30.2687ZM553.553 27.5125C553.849 27.5125 554.097 27.3977 554.297 27.168C554.497 26.9288 554.597 26.5794 554.597 26.1201C554.597 25.6607 554.497 25.3162 554.297 25.0865C554.097 24.8473 553.849 24.7276 553.553 24.7276C553.258 24.7276 553.01 24.8473 552.81 25.0865C552.61 25.3162 552.51 25.6607 552.51 26.1201C552.51 26.5794 552.605 26.9288 552.796 27.168C552.996 27.3977 553.248 27.5125 553.553 27.5125Z" fill="white"/>
<path d="M564.457 22.0145C565.381 22.0145 566.101 22.3255 566.615 22.9476C567.139 23.5697 567.401 24.4118 567.401 25.4741V30.1682H564.242V25.876C564.242 25.4932 564.137 25.1918 563.928 24.9717C563.728 24.742 563.456 24.6271 563.113 24.6271C562.76 24.6271 562.484 24.742 562.284 24.9717C562.084 25.1918 561.984 25.4932 561.984 25.876V30.1682H558.81V22.0719H561.984V23.3065C562.231 22.9237 562.56 22.6126 562.97 22.3734C563.389 22.1341 563.885 22.0145 564.457 22.0145Z" fill="white"/>
<path d="M568.492 25.0722C568.492 24.0673 568.692 23.1725 569.092 22.3877C569.502 21.603 570.083 20.9953 570.836 20.5646C571.589 20.1244 572.475 19.9043 573.495 19.9043C574.372 19.9043 575.153 20.0718 575.839 20.4067C576.535 20.7321 577.097 21.1963 577.526 21.7992C577.964 22.4021 578.255 23.1055 578.398 23.9094H575.053C574.901 23.5744 574.681 23.316 574.395 23.1342C574.119 22.9428 573.8 22.8471 573.438 22.8471C572.904 22.8471 572.48 23.0481 572.165 23.45C571.861 23.852 571.708 24.3927 571.708 25.0722C571.708 25.7516 571.861 26.2923 572.165 26.6943C572.48 27.0962 572.904 27.2972 573.438 27.2972C573.8 27.2972 574.119 27.2063 574.395 27.0245C574.681 26.8331 574.901 26.5699 575.053 26.2349H578.398C578.255 27.0388 577.964 27.7422 577.526 28.3451C577.097 28.948 576.535 29.417 575.839 29.7519C575.153 30.0773 574.372 30.24 573.495 30.24C572.475 30.24 571.589 30.0247 570.836 29.594C570.083 29.1538 569.502 28.5413 569.092 27.7566C568.692 26.9718 568.492 26.077 568.492 25.0722Z" fill="white"/>
<path d="M583.372 30.2687C582.562 30.2687 581.833 30.1012 581.185 29.7663C580.536 29.4313 580.027 28.9528 579.655 28.3308C579.293 27.6991 579.112 26.9623 579.112 26.1201C579.112 25.2779 579.293 24.5458 579.655 23.9237C580.027 23.2921 580.536 22.8088 581.185 22.4739C581.833 22.1389 582.562 21.9714 583.372 21.9714C584.182 21.9714 584.911 22.1389 585.559 22.4739C586.207 22.8088 586.712 23.2921 587.074 23.9237C587.446 24.5458 587.632 25.2779 587.632 26.1201C587.632 26.9623 587.446 27.6991 587.074 28.3308C586.712 28.9528 586.207 29.4313 585.559 29.7663C584.911 30.1012 584.182 30.2687 583.372 30.2687ZM583.372 27.5125C583.667 27.5125 583.915 27.3977 584.115 27.168C584.315 26.9288 584.415 26.5794 584.415 26.1201C584.415 25.6607 584.315 25.3162 584.115 25.0865C583.915 24.8473 583.667 24.7276 583.372 24.7276C583.076 24.7276 582.828 24.8473 582.628 25.0865C582.428 25.3162 582.328 25.6607 582.328 26.1201C582.328 26.5794 582.423 26.9288 582.614 27.168C582.814 27.3977 583.067 27.5125 583.372 27.5125Z" fill="white"/>
<path d="M594.275 22.0145C595.199 22.0145 595.919 22.3255 596.434 22.9476C596.958 23.5697 597.22 24.4118 597.22 25.4741V30.1682H594.061V25.876C594.061 25.4932 593.956 25.1918 593.746 24.9717C593.546 24.742 593.274 24.6271 592.931 24.6271C592.579 24.6271 592.302 24.742 592.102 24.9717C591.902 25.1918 591.802 25.4932 591.802 25.876V30.1682H588.628V22.0719H591.802V23.3065C592.05 22.9237 592.379 22.6126 592.788 22.3734C593.208 22.1341 593.703 22.0145 594.275 22.0145Z" fill="white"/>
<path d="M603.613 27.4551V30.1682H602.413C600.202 30.1682 599.096 29.0629 599.096 26.8522V24.7276H598.096V22.0719H599.096V20.1196H602.27V22.0719H603.585V24.7276H602.27V26.9096C602.27 27.101 602.312 27.2398 602.398 27.3259C602.494 27.412 602.646 27.4551 602.856 27.4551H603.613Z" fill="white"/>
<path d="M607.995 23.5649C608.319 23.0959 608.715 22.7227 609.182 22.4452C609.649 22.1581 610.135 22.0145 610.64 22.0145V25.4167H609.739C609.139 25.4167 608.696 25.522 608.41 25.7325C608.134 25.943 607.995 26.3163 607.995 26.8522V30.1682H604.822V22.0719H607.995V23.5649Z" fill="white"/>
<path d="M615.326 30.2687C614.516 30.2687 613.787 30.1012 613.139 29.7663C612.491 29.4313 611.981 28.9528 611.609 28.3308C611.247 27.6991 611.066 26.9623 611.066 26.1201C611.066 25.2779 611.247 24.5458 611.609 23.9237C611.981 23.2921 612.491 22.8088 613.139 22.4739C613.787 22.1389 614.516 21.9714 615.326 21.9714C616.136 21.9714 616.865 22.1389 617.513 22.4739C618.161 22.8088 618.666 23.2921 619.028 23.9237C619.4 24.5458 619.586 25.2779 619.586 26.1201C619.586 26.9623 619.4 27.6991 619.028 28.3308C618.666 28.9528 618.161 29.4313 617.513 29.7663C616.865 30.1012 616.136 30.2687 615.326 30.2687ZM615.326 27.5125C615.621 27.5125 615.869 27.3977 616.069 27.168C616.269 26.9288 616.369 26.5794 616.369 26.1201C616.369 25.6607 616.269 25.3162 616.069 25.0865C615.869 24.8473 615.621 24.7276 615.326 24.7276C615.03 24.7276 614.783 24.8473 614.582 25.0865C614.382 25.3162 614.282 25.6607 614.282 26.1201C614.282 26.5794 614.378 26.9288 614.568 27.168C614.768 27.3977 615.021 27.5125 615.326 27.5125Z" fill="white"/>
<path d="M623.756 19.5454V30.1682H620.583V19.5454H623.756Z" fill="white"/>
<path d="M490.568 23.271C489.936 23.3114 489.391 22.8314 489.349 22.1966C489.309 21.5619 489.787 21.0146 490.419 20.972C491.051 20.9316 491.596 21.4116 491.636 22.0464C491.678 22.6834 491.198 23.2307 490.568 23.271Z" fill="white"/>
<path d="M499.351 17.0916C497.734 14.0636 494.553 12 490.901 12C487.278 12 484.12 14.0299 482.492 17.0153C481.844 16.8852 481.181 16.8179 480.504 16.8247C477.92 16.8426 475.505 17.8766 473.7 19.7383C471.958 21.535 471 23.917 471 26.4426C471 28.9682 471.958 31.3503 473.703 33.1492C473.756 33.2052 473.812 33.2613 473.868 33.3151C475.61 35.0288 477.227 35.9484 479.57 35.9484C483.102 35.9484 484.576 35.0669 486.579 29.437L486.577 29.345L485.583 28.9525L485.498 28.9189L485.407 28.883L483.347 28.0688C483.363 28.0284 483.378 27.9903 483.394 27.9521C483.396 27.9454 483.399 27.9387 483.403 27.932C483.416 27.9028 483.428 27.8736 483.441 27.8445C483.445 27.8355 483.448 27.8265 483.454 27.8176C483.47 27.7839 483.486 27.7525 483.501 27.7189C483.501 27.7144 483.506 27.7099 483.508 27.7054C483.526 27.6695 483.544 27.6359 483.562 27.6C483.582 27.5619 483.602 27.526 483.622 27.4879C483.64 27.4542 483.66 27.4228 483.678 27.3892C483.698 27.3578 483.716 27.3286 483.734 27.2994C483.743 27.2837 483.754 27.268 483.763 27.2546C483.778 27.2299 483.794 27.2052 483.81 27.1828C483.818 27.1693 483.827 27.1559 483.836 27.1447C483.848 27.1312 483.856 27.1155 483.868 27.1021C483.883 27.0796 483.899 27.0594 483.912 27.037C483.948 26.9899 483.986 26.9406 484.022 26.8935C484.033 26.88 484.044 26.8665 484.053 26.8553C484.075 26.8284 484.098 26.8015 484.12 26.7746C484.145 26.7454 484.167 26.7207 484.192 26.6916C484.192 26.6893 484.194 26.6893 484.194 26.6893C484.218 26.6624 484.241 26.6378 484.265 26.6131C484.274 26.6019 484.285 26.5907 484.296 26.5794C484.317 26.5593 484.337 26.5391 484.357 26.5166C484.384 26.492 484.408 26.4673 484.433 26.4426C484.448 26.4292 484.462 26.4157 484.475 26.4022C484.567 26.3193 484.658 26.2385 484.754 26.1645C484.781 26.1421 484.81 26.1196 484.839 26.0994C484.846 26.0927 484.853 26.0882 484.859 26.0837C484.886 26.0658 484.911 26.0478 484.938 26.0299C484.951 26.0187 484.964 26.0097 484.978 26.0007C485 25.985 485.022 25.9693 485.047 25.9536C485.063 25.9424 485.076 25.9335 485.092 25.9245C485.105 25.9155 485.118 25.9065 485.132 25.8976C485.156 25.8819 485.179 25.8662 485.206 25.8527L485.235 25.8348C485.261 25.8191 485.288 25.8034 485.315 25.7877C485.384 25.7495 485.456 25.7114 485.527 25.6755C485.563 25.6576 485.599 25.6419 485.634 25.6239C485.67 25.606 485.706 25.5903 485.742 25.5746C485.777 25.5589 485.815 25.5432 485.851 25.5275C485.88 25.5163 485.909 25.5028 485.94 25.4916C485.956 25.4849 485.972 25.4781 485.987 25.4736C486.016 25.4624 486.043 25.4535 486.072 25.4422C486.072 25.4422 486.074 25.4422 486.077 25.4422C486.115 26.0837 486.213 26.6378 486.307 27.046C486.407 27.4834 486.501 27.7503 486.508 27.7727L486.505 27.7436C486.505 27.7346 486.503 27.7278 486.503 27.7189C486.497 27.6359 486.492 27.5484 486.49 27.4632C486.488 27.4183 486.485 27.3735 486.483 27.3286C486.481 27.2389 486.476 27.1469 486.476 27.0527C486.476 27.0056 486.474 26.9563 486.474 26.9092C486.474 26.8531 486.474 26.797 486.474 26.7387V26.705C486.474 26.6736 486.474 26.6422 486.476 26.6086C486.479 26.4067 486.485 26.1959 486.497 25.9783C486.505 25.8168 486.517 25.6508 486.532 25.4826C486.537 25.4243 486.543 25.366 486.548 25.3077C486.655 24.2378 486.899 23.0378 487.379 21.8176C488.913 17.908 492.369 17.4056 492.369 17.4056C492.369 17.4056 494.553 20.1376 493.019 24.0493C492.777 24.6594 492.498 25.2247 492.199 25.745C491.9 26.2654 491.578 26.7409 491.254 27.1693C491.171 27.2793 491.087 27.3892 491.002 27.4923C490.977 27.5215 490.955 27.5507 490.932 27.5798C490.877 27.6471 490.821 27.7121 490.767 27.7772C490.702 27.8535 490.638 27.9275 490.575 28.0015C490.542 28.0374 490.51 28.0733 490.479 28.1092C490.448 28.145 490.416 28.1787 490.383 28.2123C490.224 28.385 490.07 28.5465 489.923 28.6923C489.894 28.7237 489.865 28.7507 489.834 28.7798C489.802 28.809 489.775 28.8359 489.746 28.8628C489.717 28.892 489.688 28.9189 489.662 28.9458C489.644 28.9637 489.626 28.9794 489.608 28.9951C489.637 28.9817 490.028 28.7753 490.562 28.3806C490.848 28.1697 491.174 27.905 491.509 27.5888C491.509 27.591 491.511 27.5933 491.513 27.5955C491.515 27.6 491.518 27.6045 491.52 27.6112C491.529 27.6269 491.538 27.6426 491.544 27.6561C491.556 27.6785 491.567 27.6987 491.576 27.7211C491.589 27.7458 491.6 27.7705 491.611 27.7951C491.616 27.8019 491.618 27.8086 491.62 27.8153C491.634 27.8445 491.647 27.8736 491.661 27.9028C491.667 27.9163 491.672 27.9275 491.676 27.9409C491.687 27.9656 491.696 27.9903 491.707 28.0172C491.77 28.1697 491.824 28.3267 491.868 28.486C491.875 28.5107 491.882 28.5331 491.886 28.5578C491.893 28.5779 491.897 28.6004 491.904 28.6206C491.909 28.6363 491.913 28.652 491.915 28.6677C491.922 28.6946 491.929 28.7215 491.933 28.7507C491.938 28.7664 491.942 28.7821 491.944 28.8C491.949 28.8247 491.955 28.8471 491.96 28.874C491.964 28.8942 491.969 28.9144 491.971 28.9346C491.987 29.0176 492 29.1006 492.009 29.1836C492.013 29.2239 492.018 29.2643 492.022 29.3047C492.027 29.345 492.029 29.3854 492.031 29.4258C492.036 29.4998 492.04 29.5761 492.04 29.6501V29.686C492.04 29.7219 492.04 29.7555 492.04 29.7914V29.7959C492.04 29.8318 492.038 29.8677 492.036 29.9036C492.036 29.9125 492.036 29.9237 492.036 29.9327C492.034 29.9664 492.031 30 492.029 30.0359C492.027 30.0718 492.025 30.1054 492.02 30.1413C492.018 30.1548 492.018 30.166 492.016 30.1794L492.005 30.2804C492.005 30.2826 492.005 30.2826 492.005 30.2826C492 30.323 491.993 30.3634 491.987 30.406C491.987 30.4105 491.987 30.415 491.984 30.4194C491.98 30.4486 491.976 30.48 491.969 30.5092C491.967 30.5249 491.964 30.5406 491.96 30.5563C491.953 30.5921 491.946 30.6258 491.94 30.6617C491.931 30.6998 491.922 30.7357 491.915 30.7716C491.904 30.812 491.895 30.8523 491.884 30.895C491.873 30.9331 491.862 30.9712 491.85 31.0071C491.85 31.0116 491.848 31.0161 491.848 31.0206C491.837 31.0564 491.826 31.0901 491.815 31.1237C491.812 31.1327 491.808 31.1417 491.806 31.1507C491.797 31.1798 491.786 31.2112 491.774 31.2426C491.772 31.2493 491.77 31.2538 491.768 31.2606C491.754 31.2987 491.739 31.3391 491.723 31.3772L489.574 30.5271L489.559 30.5204L488.509 30.1054C488.33 30.3163 486.211 35.9843 489.344 35.9843C491.94 35.9843 497.102 36.0561 497.102 36.0561C502.384 36.0561 506.681 31.7406 506.681 26.4359C506.681 21.914 503.552 18.1077 499.351 17.0916Z" fill="white"/>
</g>
<path d="M14 24.736C14 23.648 14.2507 22.672 14.752 21.808C15.264 20.944 15.952 20.272 16.816 19.792C17.6907 19.3013 18.6453 19.056 19.68 19.056C20.864 19.056 21.9147 19.3493 22.832 19.936C23.76 20.512 24.432 21.3333 24.848 22.4H22.656C22.368 21.8133 21.968 21.376 21.456 21.088C20.944 20.8 20.352 20.656 19.68 20.656C18.944 20.656 18.288 20.8213 17.712 21.152C17.136 21.4827 16.6827 21.9573 16.352 22.576C16.032 23.1947 15.872 23.9147 15.872 24.736C15.872 25.5573 16.032 26.2773 16.352 26.896C16.6827 27.5147 17.136 27.9947 17.712 28.336C18.288 28.6667 18.944 28.832 19.68 28.832C20.352 28.832 20.944 28.688 21.456 28.4C21.968 28.112 22.368 27.6747 22.656 27.088H24.848C24.432 28.1547 23.76 28.976 22.832 29.552C21.9147 30.128 20.864 30.416 19.68 30.416C18.6347 30.416 17.68 30.176 16.816 29.696C15.952 29.2053 15.264 28.528 14.752 27.664C14.2507 26.8 14 25.824 14 24.736Z" fill="white"/>
<path d="M31.543 21.36C32.215 21.36 32.8123 21.504 33.335 21.792C33.8683 22.08 34.2843 22.5067 34.583 23.072C34.8923 23.6373 35.047 24.32 35.047 25.12V30.32H33.239V25.392C33.239 24.6027 33.0417 24 32.647 23.584C32.2523 23.1573 31.7137 22.944 31.031 22.944C30.3483 22.944 29.8043 23.1573 29.399 23.584C29.0043 24 28.807 24.6027 28.807 25.392V30.32H26.983V18.48H28.807V22.528C29.1163 22.1547 29.5057 21.8667 29.975 21.664C30.455 21.4613 30.9777 21.36 31.543 21.36Z" fill="white"/>
<path d="M41.1976 30.464C40.3656 30.464 39.6136 30.2773 38.9416 29.904C38.2696 29.52 37.7416 28.9867 37.3576 28.304C36.9736 27.6107 36.7816 26.8107 36.7816 25.904C36.7816 25.008 36.979 24.2133 37.3736 23.52C37.7683 22.8267 38.307 22.2933 38.9896 21.92C39.6723 21.5467 40.435 21.36 41.2776 21.36C42.1203 21.36 42.883 21.5467 43.5656 21.92C44.2483 22.2933 44.787 22.8267 45.1816 23.52C45.5763 24.2133 45.7736 25.008 45.7736 25.904C45.7736 26.8 45.571 27.5947 45.1656 28.288C44.7603 28.9813 44.2056 29.52 43.5016 29.904C42.8083 30.2773 42.0403 30.464 41.1976 30.464ZM41.1976 28.88C41.667 28.88 42.1043 28.768 42.5096 28.544C42.9256 28.32 43.2616 27.984 43.5176 27.536C43.7736 27.088 43.9016 26.544 43.9016 25.904C43.9016 25.264 43.779 24.7253 43.5336 24.288C43.2883 23.84 42.963 23.504 42.5576 23.28C42.1523 23.056 41.715 22.944 41.2456 22.944C40.7763 22.944 40.339 23.056 39.9336 23.28C39.539 23.504 39.2243 23.84 38.9896 24.288C38.755 24.7253 38.6376 25.264 38.6376 25.904C38.6376 26.8533 38.8776 27.5893 39.3576 28.112C39.8483 28.624 40.4616 28.88 41.1976 28.88Z" fill="white"/>
<path d="M51.4007 30.464C50.5687 30.464 49.8167 30.2773 49.1447 29.904C48.4727 29.52 47.9447 28.9867 47.5607 28.304C47.1768 27.6107 46.9847 26.8107 46.9847 25.904C46.9847 25.008 47.1821 24.2133 47.5768 23.52C47.9714 22.8267 48.5101 22.2933 49.1927 21.92C49.8754 21.5467 50.6381 21.36 51.4808 21.36C52.3234 21.36 53.0861 21.5467 53.7687 21.92C54.4514 22.2933 54.9901 22.8267 55.3848 23.52C55.7794 24.2133 55.9767 25.008 55.9767 25.904C55.9767 26.8 55.7741 27.5947 55.3688 28.288C54.9634 28.9813 54.4087 29.52 53.7048 29.904C53.0114 30.2773 52.2434 30.464 51.4007 30.464ZM51.4007 28.88C51.8701 28.88 52.3074 28.768 52.7127 28.544C53.1287 28.32 53.4647 27.984 53.7207 27.536C53.9767 27.088 54.1048 26.544 54.1048 25.904C54.1048 25.264 53.9821 24.7253 53.7368 24.288C53.4914 23.84 53.1661 23.504 52.7607 23.28C52.3554 23.056 51.9181 22.944 51.4487 22.944C50.9794 22.944 50.5421 23.056 50.1367 23.28C49.7421 23.504 49.4274 23.84 49.1927 24.288C48.9581 24.7253 48.8408 25.264 48.8408 25.904C48.8408 26.8533 49.0807 27.5893 49.5607 28.112C50.0514 28.624 50.6647 28.88 51.4007 28.88Z" fill="white"/>
<path d="M60.9799 30.464C60.2865 30.464 59.6625 30.3413 59.1079 30.096C58.5639 29.84 58.1319 29.4987 57.8119 29.072C57.4919 28.6347 57.3212 28.1493 57.2999 27.616H59.1879C59.2199 27.9893 59.3959 28.304 59.7159 28.56C60.0465 28.8053 60.4572 28.928 60.9479 28.928C61.4599 28.928 61.8545 28.832 62.1319 28.64C62.4199 28.4373 62.5639 28.1813 62.5639 27.872C62.5639 27.5413 62.4039 27.296 62.0839 27.136C61.7745 26.976 61.2785 26.8 60.5959 26.608C59.9345 26.4267 59.3959 26.2507 58.9799 26.08C58.5639 25.9093 58.2012 25.648 57.8919 25.296C57.5932 24.944 57.4439 24.48 57.4439 23.904C57.4439 23.4347 57.5825 23.008 57.8599 22.624C58.1372 22.2293 58.5319 21.92 59.0439 21.696C59.5665 21.472 60.1639 21.36 60.8359 21.36C61.8385 21.36 62.6439 21.616 63.2519 22.128C63.8705 22.6293 64.2012 23.3173 64.2439 24.192H62.4199C62.3879 23.7973 62.2279 23.4827 61.9399 23.248C61.6519 23.0133 61.2625 22.896 60.7719 22.896C60.2919 22.896 59.9239 22.9867 59.6679 23.168C59.4119 23.3493 59.2839 23.5893 59.2839 23.888C59.2839 24.1227 59.3692 24.32 59.5399 24.48C59.7105 24.64 59.9185 24.768 60.1639 24.864C60.4092 24.9493 60.7719 25.0613 61.2519 25.2C61.8919 25.3707 62.4145 25.5467 62.8199 25.728C63.2359 25.8987 63.5932 26.1547 63.8919 26.496C64.1905 26.8373 64.3452 27.2907 64.3559 27.856C64.3559 28.3573 64.2172 28.8053 63.9399 29.2C63.6625 29.5947 63.2679 29.904 62.7559 30.128C62.2545 30.352 61.6625 30.464 60.9799 30.464Z" fill="white"/>
<path d="M74.4067 25.696C74.4067 26.0267 74.3854 26.3253 74.3428 26.592H67.6068C67.6601 27.296 67.9214 27.8613 68.3908 28.288C68.8601 28.7147 69.4361 28.928 70.1188 28.928C71.1001 28.928 71.7934 28.5173 72.1987 27.696H74.1667C73.9001 28.5067 73.4147 29.1733 72.7108 29.696C72.0174 30.208 71.1534 30.464 70.1188 30.464C69.2761 30.464 68.5187 30.2773 67.8467 29.904C67.1854 29.52 66.6628 28.9867 66.2788 28.304C65.9054 27.6107 65.7188 26.8107 65.7188 25.904C65.7188 24.9973 65.9001 24.2027 66.2627 23.52C66.6361 22.8267 67.1534 22.2933 67.8148 21.92C68.4868 21.5467 69.2548 21.36 70.1188 21.36C70.9508 21.36 71.6921 21.5413 72.3428 21.904C72.9934 22.2667 73.5001 22.7787 73.8628 23.44C74.2254 24.0907 74.4067 24.8427 74.4067 25.696ZM72.5028 25.12C72.4921 24.448 72.2521 23.9093 71.7827 23.504C71.3134 23.0987 70.7321 22.896 70.0387 22.896C69.4094 22.896 68.8708 23.0987 68.4227 23.504C67.9747 23.8987 67.7081 24.4373 67.6227 25.12H72.5028Z" fill="white"/>
<path d="M79.75 25.872C79.75 24.9867 79.9313 24.2027 80.294 23.52C80.6673 22.8373 81.1687 22.3093 81.798 21.936C82.438 21.552 83.142 21.36 83.91 21.36C84.6033 21.36 85.206 21.4987 85.718 21.776C86.2407 22.0427 86.6567 22.3787 86.966 22.784V21.504H88.806V30.32H86.966V29.008C86.6567 29.424 86.2353 29.7707 85.702 30.048C85.1687 30.3253 84.5607 30.464 83.878 30.464C83.1207 30.464 82.4273 30.272 81.798 29.888C81.1687 29.4933 80.6673 28.9493 80.294 28.256C79.9313 27.552 79.75 26.7573 79.75 25.872ZM86.966 25.904C86.966 25.296 86.838 24.768 86.582 24.32C86.3367 23.872 86.0113 23.5307 85.606 23.296C85.2007 23.0613 84.7633 22.944 84.294 22.944C83.8247 22.944 83.3873 23.0613 82.982 23.296C82.5767 23.52 82.246 23.856 81.99 24.304C81.7447 24.7413 81.622 25.264 81.622 25.872C81.622 26.48 81.7447 27.0133 81.99 27.472C82.246 27.9307 82.5767 28.2827 82.982 28.528C83.398 28.7627 83.8353 28.88 84.294 28.88C84.7633 28.88 85.2007 28.7627 85.606 28.528C86.0113 28.2933 86.3367 27.952 86.582 27.504C86.838 27.0453 86.966 26.512 86.966 25.904Z" fill="white"/>
<path d="M98.558 30.464C97.8647 30.464 97.2407 30.3413 96.686 30.096C96.142 29.84 95.71 29.4987 95.39 29.072C95.07 28.6347 94.8993 28.1493 94.878 27.616H96.766C96.798 27.9893 96.974 28.304 97.294 28.56C97.6247 28.8053 98.0353 28.928 98.526 28.928C99.038 28.928 99.4327 28.832 99.71 28.64C99.998 28.4373 100.142 28.1813 100.142 27.872C100.142 27.5413 99.982 27.296 99.662 27.136C99.3527 26.976 98.8567 26.8 98.174 26.608C97.5127 26.4267 96.974 26.2507 96.558 26.08C96.142 25.9093 95.7793 25.648 95.47 25.296C95.1713 24.944 95.022 24.48 95.022 23.904C95.022 23.4347 95.1607 23.008 95.438 22.624C95.7153 22.2293 96.11 21.92 96.622 21.696C97.1447 21.472 97.742 21.36 98.414 21.36C99.4167 21.36 100.222 21.616 100.83 22.128C101.449 22.6293 101.779 23.3173 101.822 24.192H99.998C99.966 23.7973 99.806 23.4827 99.518 23.248C99.23 23.0133 98.8407 22.896 98.35 22.896C97.87 22.896 97.502 22.9867 97.246 23.168C96.99 23.3493 96.862 23.5893 96.862 23.888C96.862 24.1227 96.9473 24.32 97.118 24.48C97.2887 24.64 97.4967 24.768 97.742 24.864C97.9873 24.9493 98.35 25.0613 98.83 25.2C99.47 25.3707 99.9927 25.5467 100.398 25.728C100.814 25.8987 101.171 26.1547 101.47 26.496C101.769 26.8373 101.923 27.2907 101.934 27.856C101.934 28.3573 101.795 28.8053 101.518 29.2C101.241 29.5947 100.846 29.904 100.334 30.128C99.8327 30.352 99.2407 30.464 98.558 30.464Z" fill="white"/>
<path d="M111.985 25.696C111.985 26.0267 111.964 26.3253 111.921 26.592H105.185C105.238 27.296 105.5 27.8613 105.969 28.288C106.438 28.7147 107.014 28.928 107.697 28.928C108.678 28.928 109.372 28.5173 109.777 27.696H111.745C111.478 28.5067 110.993 29.1733 110.289 29.696C109.596 30.208 108.732 30.464 107.697 30.464C106.854 30.464 106.097 30.2773 105.425 29.904C104.764 29.52 104.241 28.9867 103.857 28.304C103.484 27.6107 103.297 26.8107 103.297 25.904C103.297 24.9973 103.478 24.2027 103.841 23.52C104.214 22.8267 104.732 22.2933 105.393 21.92C106.065 21.5467 106.833 21.36 107.697 21.36C108.529 21.36 109.27 21.5413 109.921 21.904C110.572 22.2667 111.078 22.7787 111.441 23.44C111.804 24.0907 111.985 24.8427 111.985 25.696ZM110.081 25.12C110.07 24.448 109.83 23.9093 109.361 23.504C108.892 23.0987 108.31 22.896 107.617 22.896C106.988 22.896 106.449 23.0987 106.001 23.504C105.553 23.8987 105.286 24.4373 105.201 25.12H110.081Z" fill="white"/>
<path d="M113.172 25.904C113.172 24.9973 113.353 24.2027 113.716 23.52C114.089 22.8267 114.601 22.2933 115.252 21.92C115.903 21.5467 116.649 21.36 117.492 21.36C118.559 21.36 119.439 21.616 120.132 22.128C120.836 22.6293 121.311 23.3493 121.556 24.288H119.588C119.428 23.8507 119.172 23.5093 118.82 23.264C118.468 23.0187 118.025 22.896 117.492 22.896C116.745 22.896 116.148 23.1627 115.7 23.696C115.263 24.2187 115.044 24.9547 115.044 25.904C115.044 26.8533 115.263 27.5947 115.7 28.128C116.148 28.6613 116.745 28.928 117.492 28.928C118.548 28.928 119.247 28.464 119.588 27.536H121.556C121.3 28.432 120.82 29.1467 120.116 29.68C119.412 30.2027 118.537 30.464 117.492 30.464C116.649 30.464 115.903 30.2773 115.252 29.904C114.601 29.52 114.089 28.9867 113.716 28.304C113.353 27.6107 113.172 26.8107 113.172 25.904Z" fill="white"/>
<path d="M131.358 21.504V30.32H129.534V29.28C129.246 29.6427 128.867 29.9307 128.398 30.144C127.939 30.3467 127.448 30.448 126.926 30.448C126.232 30.448 125.608 30.304 125.054 30.016C124.51 29.728 124.078 29.3013 123.758 28.736C123.448 28.1707 123.294 27.488 123.294 26.688V21.504H125.102V26.416C125.102 27.2053 125.299 27.8133 125.694 28.24C126.088 28.656 126.627 28.864 127.31 28.864C127.992 28.864 128.531 28.656 128.926 28.24C129.331 27.8133 129.534 27.2053 129.534 26.416V21.504H131.358Z" fill="white"/>
<path d="M135.588 22.784C135.855 22.336 136.207 21.9893 136.644 21.744C137.092 21.488 137.62 21.36 138.228 21.36V23.248H137.764C137.05 23.248 136.506 23.4293 136.132 23.792C135.77 24.1547 135.588 24.784 135.588 25.68V30.32H133.764V21.504H135.588V22.784Z" fill="white"/>
<path d="M147.985 25.696C147.985 26.0267 147.964 26.3253 147.921 26.592H141.185C141.238 27.296 141.5 27.8613 141.969 28.288C142.438 28.7147 143.014 28.928 143.697 28.928C144.678 28.928 145.372 28.5173 145.777 27.696H147.745C147.478 28.5067 146.993 29.1733 146.289 29.696C145.596 30.208 144.732 30.464 143.697 30.464C142.854 30.464 142.097 30.2773 141.425 29.904C140.764 29.52 140.241 28.9867 139.857 28.304C139.484 27.6107 139.297 26.8107 139.297 25.904C139.297 24.9973 139.478 24.2027 139.841 23.52C140.214 22.8267 140.732 22.2933 141.393 21.92C142.065 21.5467 142.833 21.36 143.697 21.36C144.529 21.36 145.27 21.5413 145.921 21.904C146.572 22.2667 147.078 22.7787 147.441 23.44C147.804 24.0907 147.985 24.8427 147.985 25.696ZM146.081 25.12C146.07 24.448 145.83 23.9093 145.361 23.504C144.892 23.0987 144.31 22.896 143.617 22.896C142.988 22.896 142.449 23.0987 142.001 23.504C141.553 23.8987 141.286 24.4373 141.201 25.12H146.081Z" fill="white"/>
<path d="M153.328 25.872C153.328 24.9867 153.509 24.2027 153.872 23.52C154.245 22.8373 154.747 22.3093 155.376 21.936C156.016 21.552 156.72 21.36 157.488 21.36C158.181 21.36 158.784 21.4987 159.296 21.776C159.819 22.0427 160.235 22.3787 160.544 22.784V21.504H162.384V30.32H160.544V29.008C160.235 29.424 159.813 29.7707 159.28 30.048C158.747 30.3253 158.139 30.464 157.456 30.464C156.699 30.464 156.005 30.272 155.376 29.888C154.747 29.4933 154.245 28.9493 153.872 28.256C153.509 27.552 153.328 26.7573 153.328 25.872ZM160.544 25.904C160.544 25.296 160.416 24.768 160.16 24.32C159.915 23.872 159.589 23.5307 159.184 23.296C158.779 23.0613 158.341 22.944 157.872 22.944C157.403 22.944 156.965 23.0613 156.56 23.296C156.155 23.52 155.824 23.856 155.568 24.304C155.323 24.7413 155.2 25.264 155.2 25.872C155.2 26.48 155.323 27.0133 155.568 27.472C155.824 27.9307 156.155 28.2827 156.56 28.528C156.976 28.7627 157.413 28.88 157.872 28.88C158.341 28.88 158.779 28.7627 159.184 28.528C159.589 28.2933 159.915 27.952 160.16 27.504C160.416 27.0453 160.544 26.512 160.544 25.904Z" fill="white"/>
<path d="M169.228 21.36C169.921 21.36 170.54 21.504 171.084 21.792C171.639 22.08 172.071 22.5067 172.38 23.072C172.689 23.6373 172.844 24.32 172.844 25.12V30.32H171.036V25.392C171.036 24.6027 170.839 24 170.444 23.584C170.049 23.1573 169.511 22.944 168.828 22.944C168.145 22.944 167.601 23.1573 167.196 23.584C166.801 24 166.604 24.6027 166.604 25.392V30.32H164.78V21.504H166.604V22.512C166.903 22.1493 167.281 21.8667 167.74 21.664C168.209 21.4613 168.705 21.36 169.228 21.36Z" fill="white"/>
<path d="M174.562 25.872C174.562 24.9867 174.744 24.2027 175.107 23.52C175.48 22.8373 175.981 22.3093 176.611 21.936C177.251 21.552 177.96 21.36 178.738 21.36C179.314 21.36 179.88 21.488 180.434 21.744C181 21.9893 181.448 22.32 181.779 22.736V18.48H183.618V30.32H181.779V28.992C181.48 29.4187 181.064 29.7707 180.531 30.048C180.008 30.3253 179.405 30.464 178.723 30.464C177.954 30.464 177.251 30.272 176.611 29.888C175.981 29.4933 175.48 28.9493 175.107 28.256C174.744 27.552 174.562 26.7573 174.562 25.872ZM181.779 25.904C181.779 25.296 181.65 24.768 181.395 24.32C181.149 23.872 180.824 23.5307 180.419 23.296C180.013 23.0613 179.576 22.944 179.107 22.944C178.637 22.944 178.2 23.0613 177.794 23.296C177.389 23.52 177.059 23.856 176.803 24.304C176.557 24.7413 176.434 25.264 176.434 25.872C176.434 26.48 176.557 27.0133 176.803 27.472C177.059 27.9307 177.389 28.2827 177.794 28.528C178.21 28.7627 178.648 28.88 179.107 28.88C179.576 28.88 180.013 28.7627 180.419 28.528C180.824 28.2933 181.149 27.952 181.395 27.504C181.65 27.0453 181.779 26.512 181.779 25.904Z" fill="white"/>
<path d="M191.995 22.784C192.261 22.336 192.613 21.9893 193.051 21.744C193.499 21.488 194.027 21.36 194.635 21.36V23.248H194.171C193.456 23.248 192.912 23.4293 192.538 23.792C192.176 24.1547 191.995 24.784 191.995 25.68V30.32H190.171V21.504H191.995V22.784Z" fill="white"/>
<path d="M204.391 25.696C204.391 26.0267 204.37 26.3253 204.327 26.592H197.591C197.644 27.296 197.906 27.8613 198.375 28.288C198.844 28.7147 199.42 28.928 200.103 28.928C201.084 28.928 201.778 28.5173 202.183 27.696H204.151C203.884 28.5067 203.399 29.1733 202.695 29.696C202.002 30.208 201.138 30.464 200.103 30.464C199.26 30.464 198.503 30.2773 197.831 29.904C197.17 29.52 196.647 28.9867 196.263 28.304C195.89 27.6107 195.703 26.8107 195.703 25.904C195.703 24.9973 195.884 24.2027 196.247 23.52C196.62 22.8267 197.138 22.2933 197.799 21.92C198.471 21.5467 199.239 21.36 200.103 21.36C200.935 21.36 201.676 21.5413 202.327 21.904C202.978 22.2667 203.484 22.7787 203.847 23.44C204.21 24.0907 204.391 24.8427 204.391 25.696ZM202.487 25.12C202.476 24.448 202.236 23.9093 201.767 23.504C201.298 23.0987 200.716 22.896 200.023 22.896C199.394 22.896 198.855 23.0987 198.407 23.504C197.959 23.8987 197.692 24.4373 197.607 25.12H202.487Z" fill="white"/>
<path d="M208.01 18.48V30.32H206.186V18.48H208.01Z" fill="white"/>
<path d="M211.333 20.336C211.002 20.336 210.725 20.224 210.501 20C210.277 19.776 210.165 19.4987 210.165 19.168C210.165 18.8373 210.277 18.56 210.501 18.336C210.725 18.112 211.002 18 211.333 18C211.653 18 211.925 18.112 212.149 18.336C212.373 18.56 212.485 18.8373 212.485 19.168C212.485 19.4987 212.373 19.776 212.149 20C211.925 20.224 211.653 20.336 211.333 20.336ZM212.229 21.504V30.32H210.405V21.504H212.229Z" fill="white"/>
<path d="M214.016 25.872C214.016 24.9867 214.197 24.2027 214.56 23.52C214.933 22.8373 215.434 22.3093 216.064 21.936C216.704 21.552 217.408 21.36 218.176 21.36C218.869 21.36 219.472 21.4987 219.984 21.776C220.506 22.0427 220.922 22.3787 221.232 22.784V21.504H223.072V30.32H221.232V29.008C220.922 29.424 220.501 29.7707 219.968 30.048C219.434 30.3253 218.826 30.464 218.144 30.464C217.386 30.464 216.693 30.272 216.064 29.888C215.434 29.4933 214.933 28.9493 214.56 28.256C214.197 27.552 214.016 26.7573 214.016 25.872ZM221.232 25.904C221.232 25.296 221.104 24.768 220.848 24.32C220.602 23.872 220.277 23.5307 219.872 23.296C219.466 23.0613 219.029 22.944 218.56 22.944C218.09 22.944 217.653 23.0613 217.248 23.296C216.842 23.52 216.512 23.856 216.256 24.304C216.01 24.7413 215.888 25.264 215.888 25.872C215.888 26.48 216.01 27.0133 216.256 27.472C216.512 27.9307 216.842 28.2827 217.248 28.528C217.664 28.7627 218.101 28.88 218.56 28.88C219.029 28.88 219.466 28.7627 219.872 28.528C220.277 28.2933 220.602 27.952 220.848 27.504C221.104 27.0453 221.232 26.512 221.232 25.904Z" fill="white"/>
<path d="M227.291 22.816C227.601 22.3893 228.022 22.0427 228.555 21.776C229.099 21.4987 229.702 21.36 230.363 21.36C231.142 21.36 231.846 21.5467 232.475 21.92C233.105 22.2933 233.601 22.8267 233.963 23.52C234.326 24.2027 234.507 24.9867 234.507 25.872C234.507 26.7573 234.326 27.552 233.963 28.256C233.601 28.9493 233.099 29.4933 232.459 29.888C231.83 30.272 231.131 30.464 230.363 30.464C229.681 30.464 229.073 30.3307 228.539 30.064C228.017 29.7973 227.601 29.456 227.291 29.04V30.32H225.467V18.48H227.291V22.816ZM232.651 25.872C232.651 25.264 232.523 24.7413 232.267 24.304C232.022 23.856 231.691 23.52 231.275 23.296C230.87 23.0613 230.433 22.944 229.963 22.944C229.505 22.944 229.067 23.0613 228.651 23.296C228.246 23.5307 227.915 23.872 227.659 24.32C227.414 24.768 227.291 25.296 227.291 25.904C227.291 26.512 227.414 27.0453 227.659 27.504C227.915 27.952 228.246 28.2933 228.651 28.528C229.067 28.7627 229.505 28.88 229.963 28.88C230.433 28.88 230.87 28.7627 231.275 28.528C231.691 28.2827 232.022 27.9307 232.267 27.472C232.523 27.0133 232.651 26.48 232.651 25.872Z" fill="white"/>
<path d="M238.135 18.48V30.32H236.311V18.48H238.135Z" fill="white"/>
<path d="M248.61 25.696C248.61 26.0267 248.589 26.3253 248.546 26.592H241.81C241.863 27.296 242.125 27.8613 242.594 28.288C243.063 28.7147 243.639 28.928 244.322 28.928C245.303 28.928 245.997 28.5173 246.402 27.696H248.37C248.103 28.5067 247.618 29.1733 246.914 29.696C246.221 30.208 245.357 30.464 244.322 30.464C243.479 30.464 242.722 30.2773 242.05 29.904C241.389 29.52 240.866 28.9867 240.482 28.304C240.109 27.6107 239.922 26.8107 239.922 25.904C239.922 24.9973 240.103 24.2027 240.466 23.52C240.839 22.8267 241.357 22.2933 242.018 21.92C242.69 21.5467 243.458 21.36 244.322 21.36C245.154 21.36 245.895 21.5413 246.546 21.904C247.197 22.2667 247.703 22.7787 248.066 23.44C248.429 24.0907 248.61 24.8427 248.61 25.696ZM246.706 25.12C246.695 24.448 246.455 23.9093 245.986 23.504C245.517 23.0987 244.935 22.896 244.242 22.896C243.613 22.896 243.074 23.0987 242.626 23.504C242.178 23.8987 241.911 24.4373 241.826 25.12H246.706Z" fill="white"/>
<path d="M257.969 28.688L260.465 21.504H262.401L259.041 30.32H256.865L253.521 21.504H255.473L257.969 28.688Z" fill="white"/>
<path d="M263.172 25.872C263.172 24.9867 263.353 24.2027 263.716 23.52C264.089 22.8373 264.591 22.3093 265.22 21.936C265.86 21.552 266.564 21.36 267.332 21.36C268.025 21.36 268.628 21.4987 269.14 21.776C269.663 22.0427 270.079 22.3787 270.388 22.784V21.504H272.228V30.32H270.388V29.008C270.079 29.424 269.657 29.7707 269.124 30.048C268.591 30.3253 267.983 30.464 267.3 30.464C266.543 30.464 265.849 30.272 265.22 29.888C264.591 29.4933 264.089 28.9493 263.716 28.256C263.353 27.552 263.172 26.7573 263.172 25.872ZM270.388 25.904C270.388 25.296 270.26 24.768 270.004 24.32C269.759 23.872 269.433 23.5307 269.028 23.296C268.623 23.0613 268.185 22.944 267.716 22.944C267.247 22.944 266.809 23.0613 266.404 23.296C265.999 23.52 265.668 23.856 265.412 24.304C265.167 24.7413 265.044 25.264 265.044 25.872C265.044 26.48 265.167 27.0133 265.412 27.472C265.668 27.9307 265.999 28.2827 266.404 28.528C266.82 28.7627 267.257 28.88 267.716 28.88C268.185 28.88 268.623 28.7627 269.028 28.528C269.433 28.2933 269.759 27.952 270.004 27.504C270.26 27.0453 270.388 26.512 270.388 25.904Z" fill="white"/>
<path d="M276.448 18.48V30.32H274.624V18.48H276.448Z" fill="white"/>
<path d="M279.77 20.336C279.44 20.336 279.162 20.224 278.938 20C278.714 19.776 278.602 19.4987 278.602 19.168C278.602 18.8373 278.714 18.56 278.938 18.336C279.162 18.112 279.44 18 279.77 18C280.09 18 280.362 18.112 280.586 18.336C280.81 18.56 280.922 18.8373 280.922 19.168C280.922 19.4987 280.81 19.776 280.586 20C280.362 20.224 280.09 20.336 279.77 20.336ZM280.666 21.504V30.32H278.842V21.504H280.666Z" fill="white"/>
<path d="M282.453 25.872C282.453 24.9867 282.634 24.2027 282.997 23.52C283.37 22.8373 283.872 22.3093 284.501 21.936C285.141 21.552 285.85 21.36 286.629 21.36C287.205 21.36 287.77 21.488 288.325 21.744C288.89 21.9893 289.338 22.32 289.669 22.736V18.48H291.509V30.32H289.669V28.992C289.37 29.4187 288.954 29.7707 288.421 30.048C287.898 30.3253 287.296 30.464 286.613 30.464C285.845 30.464 285.141 30.272 284.501 29.888C283.872 29.4933 283.37 28.9493 282.997 28.256C282.634 27.552 282.453 26.7573 282.453 25.872ZM289.669 25.904C289.669 25.296 289.541 24.768 289.285 24.32C289.04 23.872 288.714 23.5307 288.309 23.296C287.904 23.0613 287.466 22.944 286.997 22.944C286.528 22.944 286.09 23.0613 285.685 23.296C285.28 23.52 284.949 23.856 284.693 24.304C284.448 24.7413 284.325 25.264 284.325 25.872C284.325 26.48 284.448 27.0133 284.693 27.472C284.949 27.9307 285.28 28.2827 285.685 28.528C286.101 28.7627 286.538 28.88 286.997 28.88C287.466 28.88 287.904 28.7627 288.309 28.528C288.714 28.2933 289.04 27.952 289.285 27.504C289.541 27.0453 289.669 26.512 289.669 25.904Z" fill="white"/>
<path d="M293.297 25.872C293.297 24.9867 293.478 24.2027 293.841 23.52C294.214 22.8373 294.716 22.3093 295.345 21.936C295.985 21.552 296.689 21.36 297.457 21.36C298.15 21.36 298.753 21.4987 299.265 21.776C299.788 22.0427 300.204 22.3787 300.513 22.784V21.504H302.353V30.32H300.513V29.008C300.204 29.424 299.782 29.7707 299.249 30.048C298.716 30.3253 298.108 30.464 297.425 30.464C296.668 30.464 295.974 30.272 295.345 29.888C294.716 29.4933 294.214 28.9493 293.841 28.256C293.478 27.552 293.297 26.7573 293.297 25.872ZM300.513 25.904C300.513 25.296 300.385 24.768 300.129 24.32C299.884 23.872 299.558 23.5307 299.153 23.296C298.748 23.0613 298.31 22.944 297.841 22.944C297.372 22.944 296.934 23.0613 296.529 23.296C296.124 23.52 295.793 23.856 295.537 24.304C295.292 24.7413 295.169 25.264 295.169 25.872C295.169 26.48 295.292 27.0133 295.537 27.472C295.793 27.9307 296.124 28.2827 296.529 28.528C296.945 28.7627 297.382 28.88 297.841 28.88C298.31 28.88 298.748 28.7627 299.153 28.528C299.558 28.2933 299.884 27.952 300.129 27.504C300.385 27.0453 300.513 26.512 300.513 25.904Z" fill="white"/>
<path d="M306.877 22.992V27.872C306.877 28.2027 306.951 28.4427 307.101 28.592C307.261 28.7307 307.527 28.8 307.901 28.8H309.021V30.32H307.581C306.759 30.32 306.13 30.128 305.693 29.744C305.255 29.36 305.037 28.736 305.037 27.872V22.992H303.997V21.504H305.037V19.312H306.877V21.504H309.021V22.992H306.877Z" fill="white"/>
<path d="M314.526 30.464C313.694 30.464 312.942 30.2773 312.27 29.904C311.598 29.52 311.07 28.9867 310.686 28.304C310.302 27.6107 310.11 26.8107 310.11 25.904C310.11 25.008 310.307 24.2133 310.702 23.52C311.096 22.8267 311.635 22.2933 312.318 21.92C313 21.5467 313.763 21.36 314.606 21.36C315.448 21.36 316.211 21.5467 316.894 21.92C317.576 22.2933 318.115 22.8267 318.51 23.52C318.904 24.2133 319.102 25.008 319.102 25.904C319.102 26.8 318.899 27.5947 318.494 28.288C318.088 28.9813 317.534 29.52 316.83 29.904C316.136 30.2773 315.368 30.464 314.526 30.464ZM314.526 28.88C314.995 28.88 315.432 28.768 315.838 28.544C316.254 28.32 316.59 27.984 316.846 27.536C317.102 27.088 317.23 26.544 317.23 25.904C317.23 25.264 317.107 24.7253 316.862 24.288C316.616 23.84 316.291 23.504 315.886 23.28C315.48 23.056 315.043 22.944 314.574 22.944C314.104 22.944 313.667 23.056 313.262 23.28C312.867 23.504 312.552 23.84 312.318 24.288C312.083 24.7253 311.966 25.264 311.966 25.904C311.966 26.8533 312.206 27.5893 312.686 28.112C313.176 28.624 313.79 28.88 314.526 28.88Z" fill="white"/>
<path d="M322.729 22.784C322.996 22.336 323.348 21.9893 323.785 21.744C324.233 21.488 324.761 21.36 325.369 21.36V23.248H324.905C324.19 23.248 323.646 23.4293 323.273 23.792C322.91 24.1547 322.729 24.784 322.729 25.68V30.32H320.905V21.504H322.729V22.784Z" fill="white"/>
<path d="M329.333 19.2L329.125 26.96H327.605L327.397 19.2H329.333ZM328.422 30.432C328.091 30.432 327.814 30.32 327.59 30.096C327.366 29.872 327.254 29.5947 327.254 29.264C327.254 28.9333 327.366 28.656 327.59 28.432C327.814 28.208 328.091 28.096 328.422 28.096C328.742 28.096 329.013 28.208 329.237 28.432C329.461 28.656 329.573 28.9333 329.573 29.264C329.573 29.5947 329.461 29.872 329.237 30.096C329.013 30.32 328.742 30.432 328.422 30.432Z" fill="white"/>
</g>
<defs>
<filter id="filter0_f_21_2" x="334" y="-157" width="533" height="532" filterUnits="userSpaceOnUse" color-interpolation-filters="sRGB">
<feFlood flood-opacity="0" result="BackgroundImageFix"/>
<feBlend mode="normal" in="SourceGraphic" in2="BackgroundImageFix" result="shape"/>
<feGaussianBlur stdDeviation="25" result="effect1_foregroundBlur_21_2"/>
</filter>
<filter id="filter1_f_21_2" x="454" y="-37" width="293" height="292" filterUnits="userSpaceOnUse" color-interpolation-filters="sRGB">
<feFlood flood-opacity="0" result="BackgroundImageFix"/>
<feBlend mode="normal" in="SourceGraphic" in2="BackgroundImageFix" result="shape"/>
<feGaussianBlur stdDeviation="25" result="effect1_foregroundBlur_21_2"/>
</filter>
<filter id="filter2_f_21_2" x="-110" y="-147" width="293" height="293" filterUnits="userSpaceOnUse" color-interpolation-filters="sRGB">
<feFlood flood-opacity="0" result="BackgroundImageFix"/>
<feBlend mode="normal" in="SourceGraphic" in2="BackgroundImageFix" result="shape"/>
<feGaussianBlur stdDeviation="25" result="effect1_foregroundBlur_21_2"/>
</filter>
<linearGradient id="paint0_linear_21_2" x1="600.5" y1="-107" x2="600.5" y2="325" gradientUnits="userSpaceOnUse">
<stop stop-color="#3000E0"/>
<stop offset="1" stop-color="#C57AFF" stop-opacity="0"/>
</linearGradient>
<linearGradient id="paint1_linear_21_2" x1="36.5" y1="-97" x2="36.5" y2="96" gradientUnits="userSpaceOnUse">
<stop stop-color="#3000E0"/>
<stop offset="1" stop-color="#C57AFF" stop-opacity="0"/>
</linearGradient>
<clipPath id="clip0_21_2">
<rect width="641" height="47" fill="white"/>
</clipPath>
<clipPath id="clip1_21_2">
<rect width="153" height="24" fill="white" transform="translate(471 12)"/>
</clipPath>
</defs>
</svg>
