<svg width="641" height="219" viewBox="0 0 641 219" fill="none" xmlns="http://www.w3.org/2000/svg">
<g clip-path="url(#clip0_11_2)">
<rect width="641" height="219" fill="#110042"/>
<g filter="url(#filter0_f_11_2)">
<ellipse cx="522.5" cy="251" rx="216.5" ry="216" fill="url(#paint0_linear_11_2)" fill-opacity="0.4"/>
</g>
<g filter="url(#filter1_f_11_2)">
<ellipse cx="522.5" cy="251" rx="96.5" ry="96" fill="#0E003F"/>
</g>
<g filter="url(#filter2_f_11_2)">
<circle cx="-20.5" cy="51.5" r="96.5" fill="url(#paint1_linear_11_2)"/>
</g>
<path d="M36.04 77.1C37.52 77.1 38.8133 77.3867 39.92 77.96C41.04 78.52 41.9 79.3333 42.5 80.4C43.1133 81.4533 43.42 82.6867 43.42 84.1C43.42 85.5133 43.1133 86.74 42.5 87.78C41.9 88.82 41.04 89.62 39.92 90.18C38.8133 90.7267 37.52 91 36.04 91H31.5V77.1H36.04ZM36.04 89.14C37.6667 89.14 38.9133 88.7 39.78 87.82C40.6467 86.94 41.08 85.7 41.08 84.1C41.08 82.4867 40.6467 81.2267 39.78 80.32C38.9133 79.4133 37.6667 78.96 36.04 78.96H33.78V89.14H36.04Z" fill="white"/>
<path d="M50.4597 91.18C49.4197 91.18 48.4797 90.9467 47.6397 90.48C46.7997 90 46.1397 89.3333 45.6597 88.48C45.1797 87.6133 44.9397 86.6133 44.9397 85.48C44.9397 84.36 45.1864 83.3667 45.6797 82.5C46.173 81.6333 46.8464 80.9667 47.6997 80.5C48.553 80.0333 49.5064 79.8 50.5597 79.8C51.613 79.8 52.5664 80.0333 53.4197 80.5C54.273 80.9667 54.9464 81.6333 55.4397 82.5C55.933 83.3667 56.1797 84.36 56.1797 85.48C56.1797 86.6 55.9264 87.5933 55.4197 88.46C54.913 89.3267 54.2197 90 53.3397 90.48C52.473 90.9467 51.513 91.18 50.4597 91.18ZM50.4597 89.2C51.0464 89.2 51.593 89.06 52.0997 88.78C52.6197 88.5 53.0397 88.08 53.3597 87.52C53.6797 86.96 53.8397 86.28 53.8397 85.48C53.8397 84.68 53.6864 84.0067 53.3797 83.46C53.073 82.9 52.6664 82.48 52.1597 82.2C51.653 81.92 51.1064 81.78 50.5197 81.78C49.933 81.78 49.3864 81.92 48.8797 82.2C48.3864 82.48 47.993 82.9 47.6997 83.46C47.4064 84.0067 47.2597 84.68 47.2597 85.48C47.2597 86.6667 47.5597 87.5867 48.1597 88.24C48.773 88.88 49.5397 89.2 50.4597 89.2Z" fill="white"/>
<path d="M73.5489 79.98L66.7889 96.18H64.4289L66.6689 90.82L62.3289 79.98H64.8689L67.9689 88.38L71.1889 79.98H73.5489Z" fill="white"/>
<path d="M80.0495 91.18C79.0095 91.18 78.0695 90.9467 77.2295 90.48C76.3895 90 75.7295 89.3333 75.2495 88.48C74.7695 87.6133 74.5295 86.6133 74.5295 85.48C74.5295 84.36 74.7762 83.3667 75.2695 82.5C75.7629 81.6333 76.4362 80.9667 77.2895 80.5C78.1429 80.0333 79.0962 79.8 80.1495 79.8C81.2029 79.8 82.1562 80.0333 83.0095 80.5C83.8629 80.9667 84.5362 81.6333 85.0295 82.5C85.5229 83.3667 85.7695 84.36 85.7695 85.48C85.7695 86.6 85.5162 87.5933 85.0095 88.46C84.5029 89.3267 83.8095 90 82.9295 90.48C82.0629 90.9467 81.1029 91.18 80.0495 91.18ZM80.0495 89.2C80.6362 89.2 81.1829 89.06 81.6895 88.78C82.2095 88.5 82.6295 88.08 82.9495 87.52C83.2695 86.96 83.4295 86.28 83.4295 85.48C83.4295 84.68 83.2762 84.0067 82.9695 83.46C82.6629 82.9 82.2562 82.48 81.7495 82.2C81.2429 81.92 80.6962 81.78 80.1095 81.78C79.5229 81.78 78.9762 81.92 78.4695 82.2C77.9762 82.48 77.5829 82.9 77.2895 83.46C76.9962 84.0067 76.8495 84.68 76.8495 85.48C76.8495 86.6667 77.1495 87.5867 77.7495 88.24C78.3629 88.88 79.1295 89.2 80.0495 89.2Z" fill="white"/>
<path d="M98.0034 79.98V91H95.7234V89.7C95.3634 90.1533 94.8901 90.5133 94.3034 90.78C93.7301 91.0333 93.1168 91.16 92.4634 91.16C91.5968 91.16 90.8168 90.98 90.1234 90.62C89.4434 90.26 88.9034 89.7267 88.5034 89.02C88.1168 88.3133 87.9234 87.46 87.9234 86.46V79.98H90.1834V86.12C90.1834 87.1067 90.4301 87.8667 90.9234 88.4C91.4168 88.92 92.0901 89.18 92.9434 89.18C93.7968 89.18 94.4701 88.92 94.9634 88.4C95.4701 87.8667 95.7234 87.1067 95.7234 86.12V79.98H98.0034Z" fill="white"/>
<path d="M108.487 76.2V91H106.207V76.2H108.487Z" fill="white"/>
<path d="M112.64 78.52C112.227 78.52 111.88 78.38 111.6 78.1C111.32 77.82 111.18 77.4733 111.18 77.06C111.18 76.6467 111.32 76.3 111.6 76.02C111.88 75.74 112.227 75.6 112.64 75.6C113.04 75.6 113.38 75.74 113.66 76.02C113.94 76.3 114.08 76.6467 114.08 77.06C114.08 77.4733 113.94 77.82 113.66 78.1C113.38 78.38 113.04 78.52 112.64 78.52ZM113.76 79.98V91H111.48V79.98H113.76Z" fill="white"/>
<path d="M121.114 85.5L126.194 91H123.114L119.034 86.26V91H116.754V76.2H119.034V84.8L123.034 79.98H126.194L121.114 85.5Z" fill="white"/>
<path d="M137.928 85.22C137.928 85.6333 137.901 86.0067 137.848 86.34H129.428C129.495 87.22 129.821 87.9267 130.408 88.46C130.995 88.9933 131.715 89.26 132.568 89.26C133.795 89.26 134.661 88.7467 135.168 87.72H137.628C137.295 88.7333 136.688 89.5667 135.808 90.22C134.941 90.86 133.861 91.18 132.568 91.18C131.515 91.18 130.568 90.9467 129.728 90.48C128.901 90 128.248 89.3333 127.768 88.48C127.301 87.6133 127.068 86.6133 127.068 85.48C127.068 84.3467 127.295 83.3533 127.748 82.5C128.215 81.6333 128.861 80.9667 129.688 80.5C130.528 80.0333 131.488 79.8 132.568 79.8C133.608 79.8 134.535 80.0267 135.348 80.48C136.161 80.9333 136.795 81.5733 137.248 82.4C137.701 83.2133 137.928 84.1533 137.928 85.22ZM135.548 84.5C135.535 83.66 135.235 82.9867 134.648 82.48C134.061 81.9733 133.335 81.72 132.468 81.72C131.681 81.72 131.008 81.9733 130.448 82.48C129.888 82.9733 129.555 83.6467 129.448 84.5H135.548Z" fill="white"/>
<path d="M150.147 91.18C149.107 91.18 148.167 90.9467 147.327 90.48C146.487 90 145.827 89.3333 145.347 88.48C144.867 87.6133 144.627 86.6133 144.627 85.48C144.627 84.36 144.874 83.3667 145.367 82.5C145.861 81.6333 146.534 80.9667 147.387 80.5C148.241 80.0333 149.194 79.8 150.247 79.8C151.301 79.8 152.254 80.0333 153.107 80.5C153.961 80.9667 154.634 81.6333 155.127 82.5C155.621 83.3667 155.867 84.36 155.867 85.48C155.867 86.6 155.614 87.5933 155.107 88.46C154.601 89.3267 153.907 90 153.027 90.48C152.161 90.9467 151.201 91.18 150.147 91.18ZM150.147 89.2C150.734 89.2 151.281 89.06 151.787 88.78C152.307 88.5 152.727 88.08 153.047 87.52C153.367 86.96 153.527 86.28 153.527 85.48C153.527 84.68 153.374 84.0067 153.067 83.46C152.761 82.9 152.354 82.48 151.847 82.2C151.341 81.92 150.794 81.78 150.207 81.78C149.621 81.78 149.074 81.92 148.567 82.2C148.074 82.48 147.681 82.9 147.387 83.46C147.094 84.0067 146.947 84.68 146.947 85.48C146.947 86.6667 147.247 87.5867 147.847 88.24C148.461 88.88 149.227 89.2 150.147 89.2Z" fill="white"/>
<path d="M168.101 79.98V91H165.821V89.7C165.461 90.1533 164.988 90.5133 164.401 90.78C163.828 91.0333 163.214 91.16 162.561 91.16C161.694 91.16 160.914 90.98 160.221 90.62C159.541 90.26 159.001 89.7267 158.601 89.02C158.214 88.3133 158.021 87.46 158.021 86.46V79.98H160.281V86.12C160.281 87.1067 160.528 87.8667 161.021 88.4C161.514 88.92 162.188 89.18 163.041 89.18C163.894 89.18 164.568 88.92 165.061 88.4C165.568 87.8667 165.821 87.1067 165.821 86.12V79.98H168.101Z" fill="white"/>
<path d="M173.389 81.58C173.723 81.02 174.163 80.5867 174.709 80.28C175.269 79.96 175.929 79.8 176.689 79.8V82.16H176.109C175.216 82.16 174.536 82.3867 174.069 82.84C173.616 83.2933 173.389 84.08 173.389 85.2V91H171.109V79.98H173.389V81.58Z" fill="white"/>
<path d="M186.64 81.84V87.94C186.64 88.3533 186.734 88.6533 186.92 88.84C187.12 89.0133 187.454 89.1 187.92 89.1H189.32V91H187.52C186.494 91 185.707 90.76 185.16 90.28C184.614 89.8 184.34 89.02 184.34 87.94V81.84H183.04V79.98H184.34V77.24H186.64V79.98H189.32V81.84H186.64Z" fill="white"/>
<path d="M196.202 91.18C195.162 91.18 194.222 90.9467 193.382 90.48C192.542 90 191.882 89.3333 191.402 88.48C190.922 87.6133 190.682 86.6133 190.682 85.48C190.682 84.36 190.929 83.3667 191.422 82.5C191.915 81.6333 192.589 80.9667 193.442 80.5C194.295 80.0333 195.249 79.8 196.302 79.8C197.355 79.8 198.309 80.0333 199.162 80.5C200.015 80.9667 200.689 81.6333 201.182 82.5C201.675 83.3667 201.922 84.36 201.922 85.48C201.922 86.6 201.669 87.5933 201.162 88.46C200.655 89.3267 199.962 90 199.082 90.48C198.215 90.9467 197.255 91.18 196.202 91.18ZM196.202 89.2C196.789 89.2 197.335 89.06 197.842 88.78C198.362 88.5 198.782 88.08 199.102 87.52C199.422 86.96 199.582 86.28 199.582 85.48C199.582 84.68 199.429 84.0067 199.122 83.46C198.815 82.9 198.409 82.48 197.902 82.2C197.395 81.92 196.849 81.78 196.262 81.78C195.675 81.78 195.129 81.92 194.622 82.2C194.129 82.48 193.735 82.9 193.442 83.46C193.149 84.0067 193.002 84.68 193.002 85.48C193.002 86.6667 193.302 87.5867 193.902 88.24C194.515 88.88 195.282 89.2 196.202 89.2Z" fill="white"/>
<path d="M208.956 91.18C207.916 91.18 206.976 90.9467 206.136 90.48C205.296 90 204.636 89.3333 204.156 88.48C203.676 87.6133 203.436 86.6133 203.436 85.48C203.436 84.36 203.682 83.3667 204.176 82.5C204.669 81.6333 205.342 80.9667 206.196 80.5C207.049 80.0333 208.002 79.8 209.056 79.8C210.109 79.8 211.062 80.0333 211.916 80.5C212.769 80.9667 213.442 81.6333 213.936 82.5C214.429 83.3667 214.676 84.36 214.676 85.48C214.676 86.6 214.422 87.5933 213.916 88.46C213.409 89.3267 212.716 90 211.836 90.48C210.969 90.9467 210.009 91.18 208.956 91.18ZM208.956 89.2C209.542 89.2 210.089 89.06 210.596 88.78C211.116 88.5 211.536 88.08 211.856 87.52C212.176 86.96 212.336 86.28 212.336 85.48C212.336 84.68 212.182 84.0067 211.876 83.46C211.569 82.9 211.162 82.48 210.656 82.2C210.149 81.92 209.602 81.78 209.016 81.78C208.429 81.78 207.882 81.92 207.376 82.2C206.882 82.48 206.489 82.9 206.196 83.46C205.902 84.0067 205.756 84.68 205.756 85.48C205.756 86.6667 206.056 87.5867 206.656 88.24C207.269 88.88 208.036 89.2 208.956 89.2Z" fill="white"/>
<path d="M219.21 76.2V91H216.93V76.2H219.21Z" fill="white"/>
<path d="M226.203 91.18C225.336 91.18 224.556 91.0267 223.863 90.72C223.183 90.4 222.643 89.9733 222.243 89.44C221.843 88.8933 221.63 88.2867 221.603 87.62H223.963C224.003 88.0867 224.223 88.48 224.623 88.8C225.036 89.1067 225.55 89.26 226.163 89.26C226.803 89.26 227.296 89.14 227.643 88.9C228.003 88.6467 228.183 88.3267 228.183 87.94C228.183 87.5267 227.983 87.22 227.583 87.02C227.196 86.82 226.576 86.6 225.723 86.36C224.896 86.1333 224.223 85.9133 223.703 85.7C223.183 85.4867 222.73 85.16 222.343 84.72C221.97 84.28 221.783 83.7 221.783 82.98C221.783 82.3933 221.956 81.86 222.303 81.38C222.65 80.8867 223.143 80.5 223.783 80.22C224.436 79.94 225.183 79.8 226.023 79.8C227.276 79.8 228.283 80.12 229.043 80.76C229.816 81.3867 230.23 82.2467 230.283 83.34H228.003C227.963 82.8467 227.763 82.4533 227.403 82.16C227.043 81.8667 226.556 81.72 225.943 81.72C225.343 81.72 224.883 81.8333 224.563 82.06C224.243 82.2867 224.083 82.5867 224.083 82.96C224.083 83.2533 224.19 83.5 224.403 83.7C224.616 83.9 224.876 84.06 225.183 84.18C225.49 84.2867 225.943 84.4267 226.543 84.6C227.343 84.8133 227.996 85.0333 228.503 85.26C229.023 85.4733 229.47 85.7933 229.843 86.22C230.216 86.6467 230.41 87.2133 230.423 87.92C230.423 88.5467 230.25 89.1067 229.903 89.6C229.556 90.0933 229.063 90.48 228.423 90.76C227.796 91.04 227.056 91.18 226.203 91.18Z" fill="white"/>
<path d="M236.627 76.9C237.987 76.9 239.073 77.2733 239.887 78.02C240.713 78.7667 241.127 79.7867 241.127 81.08C241.127 82.4267 240.7 83.44 239.847 84.12C238.993 84.8 237.86 85.14 236.447 85.14L236.367 86.72H234.387L234.287 83.58H234.947C236.24 83.58 237.227 83.4067 237.907 83.06C238.6 82.7133 238.947 82.0533 238.947 81.08C238.947 80.3733 238.74 79.82 238.327 79.42C237.927 79.02 237.367 78.82 236.647 78.82C235.927 78.82 235.36 79.0133 234.947 79.4C234.533 79.7867 234.327 80.3267 234.327 81.02H232.187C232.187 80.22 232.367 79.5067 232.727 78.88C233.087 78.2533 233.6 77.7667 234.267 77.42C234.947 77.0733 235.733 76.9 236.627 76.9ZM235.347 91.14C234.933 91.14 234.587 91 234.307 90.72C234.027 90.44 233.887 90.0933 233.887 89.68C233.887 89.2667 234.027 88.92 234.307 88.64C234.587 88.36 234.933 88.22 235.347 88.22C235.747 88.22 236.087 88.36 236.367 88.64C236.647 88.92 236.787 89.2667 236.787 89.68C236.787 90.0933 236.647 90.44 236.367 90.72C236.087 91 235.747 91.14 235.347 91.14Z" fill="white"/>
<path d="M45.168 144.336C42.704 144.336 40.496 143.936 38.544 143.136C36.592 142.336 35.024 141.152 33.84 139.584C32.688 138.016 32.08 136.128 32.016 133.92H40.752C40.88 135.168 41.312 136.128 42.048 136.8C42.784 137.44 43.744 137.76 44.928 137.76C46.144 137.76 47.104 137.488 47.808 136.944C48.512 136.368 48.864 135.584 48.864 134.592C48.864 133.76 48.576 133.072 48 132.528C47.456 131.984 46.768 131.536 45.936 131.184C45.136 130.832 43.984 130.432 42.48 129.984C40.304 129.312 38.528 128.64 37.152 127.968C35.776 127.296 34.592 126.304 33.6 124.992C32.608 123.68 32.112 121.968 32.112 119.856C32.112 116.72 33.248 114.272 35.52 112.512C37.792 110.72 40.752 109.824 44.4 109.824C48.112 109.824 51.104 110.72 53.376 112.512C55.648 114.272 56.864 116.736 57.024 119.904H48.144C48.08 118.816 47.68 117.968 46.944 117.36C46.208 116.72 45.264 116.4 44.112 116.4C43.12 116.4 42.32 116.672 41.712 117.216C41.104 117.728 40.8 118.48 40.8 119.472C40.8 120.56 41.312 121.408 42.336 122.016C43.36 122.624 44.96 123.28 47.136 123.984C49.312 124.72 51.072 125.424 52.416 126.096C53.792 126.768 54.976 127.744 55.968 129.024C56.96 130.304 57.456 131.952 57.456 133.968C57.456 135.888 56.96 137.632 55.968 139.2C55.008 140.768 53.6 142.016 51.744 142.944C49.888 143.872 47.696 144.336 45.168 144.336Z" fill="white"/>
<path d="M77.4352 137.04V144H73.2592C70.2832 144 67.9632 143.28 66.2992 141.84C64.6352 140.368 63.8032 137.984 63.8032 134.688V124.032H60.5392V117.216H63.8032V110.688H72.0112V117.216H77.3872V124.032H72.0112V134.784C72.0112 135.584 72.2032 136.16 72.5872 136.512C72.9712 136.864 73.6112 137.04 74.5072 137.04H77.4352Z" fill="white"/>
<path d="M80.3752 130.56C80.3752 127.808 80.8872 125.392 81.9112 123.312C82.9672 121.232 84.3912 119.632 86.1832 118.512C87.9752 117.392 89.9752 116.832 92.1832 116.832C94.0712 116.832 95.7192 117.216 97.1272 117.984C98.5672 118.752 99.6712 119.76 100.439 121.008V117.216H108.647V144H100.439V140.208C99.6392 141.456 98.5192 142.464 97.0792 143.232C95.6712 144 94.0232 144.384 92.1352 144.384C89.9592 144.384 87.9752 143.824 86.1832 142.704C84.3912 141.552 82.9672 139.936 81.9112 137.856C80.8872 135.744 80.3752 133.312 80.3752 130.56ZM100.439 130.608C100.439 128.56 99.8632 126.944 98.7112 125.76C97.5912 124.576 96.2152 123.984 94.5832 123.984C92.9512 123.984 91.5592 124.576 90.4072 125.76C89.2872 126.912 88.7272 128.512 88.7272 130.56C88.7272 132.608 89.2872 134.24 90.4072 135.456C91.5592 136.64 92.9512 137.232 94.5832 137.232C96.2152 137.232 97.5912 136.64 98.7112 135.456C99.8632 134.272 100.439 132.656 100.439 130.608Z" fill="white"/>
<path d="M130.953 144L122.793 132.768V144H114.585V108.48H122.793V128.112L130.905 117.216H141.033L129.897 130.656L141.129 144H130.953Z" fill="white"/>
<path d="M169.505 130.176C169.505 130.944 169.457 131.744 169.361 132.576H150.785C150.913 134.24 151.441 135.52 152.369 136.416C153.329 137.28 154.497 137.712 155.873 137.712C157.921 137.712 159.345 136.848 160.145 135.12H168.881C168.433 136.88 167.617 138.464 166.433 139.872C165.281 141.28 163.825 142.384 162.065 143.184C160.305 143.984 158.337 144.384 156.161 144.384C153.537 144.384 151.201 143.824 149.153 142.704C147.105 141.584 145.505 139.984 144.353 137.904C143.201 135.824 142.625 133.392 142.625 130.608C142.625 127.824 143.185 125.392 144.305 123.312C145.457 121.232 147.057 119.632 149.105 118.512C151.153 117.392 153.505 116.832 156.161 116.832C158.753 116.832 161.057 117.376 163.073 118.464C165.089 119.552 166.657 121.104 167.777 123.12C168.929 125.136 169.505 127.488 169.505 130.176ZM161.105 128.016C161.105 126.608 160.625 125.488 159.665 124.656C158.705 123.824 157.505 123.408 156.065 123.408C154.689 123.408 153.521 123.808 152.561 124.608C151.633 125.408 151.057 126.544 150.833 128.016H161.105Z" fill="white"/>
<path d="M222.455 117.216L215.207 144H206.135L201.911 126.624L197.543 144H188.519L181.223 117.216H189.431L193.223 136.368L197.735 117.216H206.423L210.983 136.272L214.727 117.216H222.455Z" fill="white"/>
<path d="M229.713 114.432C228.273 114.432 227.089 114.016 226.161 113.184C225.265 112.32 224.817 111.264 224.817 110.016C224.817 108.736 225.265 107.68 226.161 106.848C227.089 105.984 228.273 105.552 229.713 105.552C231.121 105.552 232.273 105.984 233.169 106.848C234.097 107.68 234.561 108.736 234.561 110.016C234.561 111.264 234.097 112.32 233.169 113.184C232.273 114.016 231.121 114.432 229.713 114.432ZM233.793 117.216V144H225.585V117.216H233.793Z" fill="white"/>
<path d="M254.67 137.04V144H250.494C247.518 144 245.198 143.28 243.534 141.84C241.87 140.368 241.038 137.984 241.038 134.688V124.032H237.774V117.216H241.038V110.688H249.246V117.216H254.622V124.032H249.246V134.784C249.246 135.584 249.438 136.16 249.822 136.512C250.206 136.864 250.846 137.04 251.742 137.04H254.67Z" fill="white"/>
<path d="M275.706 116.928C278.778 116.928 281.242 117.952 283.098 120C284.954 122.016 285.882 124.8 285.882 128.352V144H277.722V129.456C277.722 127.664 277.258 126.272 276.33 125.28C275.402 124.288 274.154 123.792 272.586 123.792C271.018 123.792 269.77 124.288 268.842 125.28C267.914 126.272 267.45 127.664 267.45 129.456V144H259.242V108.48H267.45V120.816C268.282 119.632 269.418 118.688 270.858 117.984C272.298 117.28 273.914 116.928 275.706 116.928Z" fill="white"/>
<path d="M328.205 117.216V144H319.997V140.352C319.165 141.536 318.029 142.496 316.589 143.232C315.181 143.936 313.613 144.288 311.885 144.288C309.837 144.288 308.029 143.84 306.461 142.944C304.893 142.016 303.677 140.688 302.813 138.96C301.949 137.232 301.517 135.2 301.517 132.864V117.216H309.677V131.76C309.677 133.552 310.141 134.944 311.069 135.936C311.997 136.928 313.245 137.424 314.813 137.424C316.413 137.424 317.677 136.928 318.605 135.936C319.533 134.944 319.997 133.552 319.997 131.76V117.216H328.205Z" fill="white"/>
<path d="M344.997 144.384C342.661 144.384 340.581 143.984 338.757 143.184C336.933 142.384 335.493 141.296 334.437 139.92C333.381 138.512 332.789 136.944 332.661 135.216H340.773C340.869 136.144 341.301 136.896 342.069 137.472C342.837 138.048 343.781 138.336 344.901 138.336C345.925 138.336 346.709 138.144 347.253 137.76C347.829 137.344 348.117 136.816 348.117 136.176C348.117 135.408 347.717 134.848 346.917 134.496C346.117 134.112 344.821 133.696 343.029 133.248C341.109 132.8 339.509 132.336 338.229 131.856C336.949 131.344 335.845 130.56 334.917 129.504C333.989 128.416 333.525 126.96 333.525 125.136C333.525 123.6 333.941 122.208 334.773 120.96C335.637 119.68 336.885 118.672 338.517 117.936C340.181 117.2 342.149 116.832 344.421 116.832C347.781 116.832 350.421 117.664 352.341 119.328C354.293 120.992 355.413 123.2 355.701 125.952H348.117C347.989 125.024 347.573 124.288 346.869 123.744C346.197 123.2 345.301 122.928 344.181 122.928C343.221 122.928 342.485 123.12 341.973 123.504C341.461 123.856 341.205 124.352 341.205 124.992C341.205 125.76 341.605 126.336 342.405 126.72C343.237 127.104 344.517 127.488 346.245 127.872C348.229 128.384 349.845 128.896 351.093 129.408C352.341 129.888 353.429 130.688 354.357 131.808C355.317 132.896 355.813 134.368 355.845 136.224C355.845 137.792 355.397 139.2 354.501 140.448C353.637 141.664 352.373 142.624 350.709 143.328C349.077 144.032 347.173 144.384 344.997 144.384Z" fill="white"/>
<path d="M371.667 109.104L370.707 132.096H363.747L362.787 109.104H371.667ZM367.347 144.384C365.907 144.384 364.723 143.968 363.795 143.136C362.899 142.272 362.451 141.216 362.451 139.968C362.451 138.688 362.899 137.616 363.795 136.752C364.723 135.888 365.907 135.456 367.347 135.456C368.755 135.456 369.907 135.888 370.803 136.752C371.731 137.616 372.195 138.688 372.195 139.968C372.195 141.216 371.731 142.272 370.803 143.136C369.907 143.968 368.755 144.384 367.347 144.384Z" fill="white"/>
<g clip-path="url(#clip1_11_2)">
<path d="M490.99 185.006V197.71H487.005V191.376L485.039 197.71H481.613L479.648 191.376V197.71H475.645V185.006H480.549L483.362 192.632L486.103 185.006H490.99Z" fill="white"/>
<path d="M494.816 186.782C494.119 186.782 493.56 186.597 493.139 186.226C492.718 185.855 492.508 185.389 492.508 184.827C492.508 184.252 492.718 183.78 493.139 183.409C493.56 183.026 494.119 182.835 494.816 182.835C495.501 182.835 496.054 183.026 496.475 183.409C496.896 183.78 497.106 184.252 497.106 184.827C497.106 185.389 496.896 185.855 496.475 186.226C496.054 186.597 495.501 186.782 494.816 186.782ZM496.799 187.59V197.71H492.796V187.59H496.799Z" fill="white"/>
<path d="M503.133 197.836C502.172 197.836 501.318 197.68 500.573 197.369C499.84 197.058 499.257 196.628 498.824 196.077C498.391 195.527 498.145 194.905 498.084 194.211H501.925C501.973 194.51 502.1 194.732 502.304 194.875C502.52 195.019 502.791 195.09 503.115 195.09C503.32 195.09 503.482 195.049 503.602 194.965C503.723 194.869 503.783 194.756 503.783 194.624C503.783 194.397 503.656 194.235 503.404 194.139C503.152 194.044 502.725 193.936 502.124 193.816C501.39 193.673 500.783 193.517 500.302 193.35C499.834 193.182 499.419 192.895 499.058 192.489C498.71 192.082 498.535 191.52 498.535 190.802C498.535 190.18 498.698 189.618 499.022 189.115C499.359 188.601 499.852 188.2 500.501 187.913C501.15 187.614 501.937 187.464 502.863 187.464C504.233 187.464 505.303 187.799 506.073 188.469C506.854 189.139 507.323 190.012 507.479 191.089H503.927C503.867 190.814 503.741 190.604 503.548 190.461C503.356 190.305 503.097 190.228 502.773 190.228C502.568 190.228 502.412 190.27 502.304 190.353C502.196 190.425 502.142 190.539 502.142 190.694C502.142 190.898 502.268 191.053 502.52 191.161C502.773 191.256 503.176 191.358 503.729 191.466C504.462 191.609 505.081 191.771 505.586 191.95C506.091 192.13 506.53 192.441 506.902 192.883C507.275 193.314 507.461 193.912 507.461 194.678C507.461 195.276 507.287 195.814 506.938 196.293C506.59 196.771 506.085 197.148 505.424 197.423C504.774 197.698 504.011 197.836 503.133 197.836Z" fill="white"/>
<path d="M513.576 197.836C512.614 197.836 511.761 197.68 511.015 197.369C510.282 197.058 509.699 196.628 509.266 196.077C508.833 195.527 508.587 194.905 508.527 194.211H512.368C512.416 194.51 512.542 194.732 512.746 194.875C512.963 195.019 513.233 195.09 513.558 195.09C513.762 195.09 513.925 195.049 514.045 194.965C514.165 194.869 514.225 194.756 514.225 194.624C514.225 194.397 514.099 194.235 513.846 194.139C513.594 194.044 513.167 193.936 512.566 193.816C511.833 193.673 511.226 193.517 510.745 193.35C510.276 193.182 509.861 192.895 509.501 192.489C509.152 192.082 508.978 191.52 508.978 190.802C508.978 190.18 509.14 189.618 509.465 189.115C509.801 188.601 510.294 188.2 510.943 187.913C511.592 187.614 512.38 187.464 513.305 187.464C514.676 187.464 515.746 187.799 516.515 188.469C517.297 189.139 517.765 190.012 517.922 191.089H514.369C514.309 190.814 514.183 190.604 513.991 190.461C513.798 190.305 513.54 190.228 513.215 190.228C513.011 190.228 512.855 190.27 512.746 190.353C512.638 190.425 512.584 190.539 512.584 190.694C512.584 190.898 512.71 191.053 512.963 191.161C513.215 191.256 513.618 191.358 514.171 191.466C514.904 191.609 515.523 191.771 516.028 191.95C516.533 192.13 516.972 192.441 517.345 192.883C517.717 193.314 517.904 193.912 517.904 194.678C517.904 195.276 517.729 195.814 517.381 196.293C517.032 196.771 516.527 197.148 515.866 197.423C515.217 197.698 514.453 197.836 513.576 197.836Z" fill="white"/>
<path d="M521.512 186.782C520.815 186.782 520.256 186.597 519.835 186.226C519.414 185.855 519.204 185.389 519.204 184.827C519.204 184.252 519.414 183.78 519.835 183.409C520.256 183.026 520.815 182.835 521.512 182.835C522.197 182.835 522.75 183.026 523.171 183.409C523.592 183.78 523.802 184.252 523.802 184.827C523.802 185.389 523.592 185.855 523.171 186.226C522.75 186.597 522.197 186.782 521.512 186.782ZM523.495 187.59V197.71H519.492V187.59H523.495Z" fill="white"/>
<path d="M530.136 197.836C529.114 197.836 528.195 197.627 527.377 197.208C526.56 196.789 525.917 196.191 525.448 195.413C524.991 194.624 524.762 193.703 524.762 192.65C524.762 191.597 524.991 190.682 525.448 189.905C525.917 189.115 526.56 188.511 527.377 188.092C528.195 187.674 529.114 187.464 530.136 187.464C531.158 187.464 532.077 187.674 532.895 188.092C533.712 188.511 534.35 189.115 534.806 189.905C535.275 190.682 535.51 191.597 535.51 192.65C535.51 193.703 535.275 194.624 534.806 195.413C534.35 196.191 533.712 196.789 532.895 197.208C532.077 197.627 531.158 197.836 530.136 197.836ZM530.136 194.391C530.509 194.391 530.821 194.247 531.074 193.96C531.326 193.661 531.452 193.224 531.452 192.65C531.452 192.076 531.326 191.645 531.074 191.358C530.821 191.059 530.509 190.91 530.136 190.91C529.763 190.91 529.451 191.059 529.198 191.358C528.946 191.645 528.82 192.076 528.82 192.65C528.82 193.224 528.94 193.661 529.18 193.96C529.433 194.247 529.751 194.391 530.136 194.391Z" fill="white"/>
<path d="M543.89 187.518C545.056 187.518 545.964 187.907 546.613 188.684C547.274 189.462 547.604 190.515 547.604 191.843V197.71H543.619V192.345C543.619 191.867 543.487 191.49 543.223 191.215C542.97 190.927 542.628 190.784 542.195 190.784C541.75 190.784 541.401 190.927 541.149 191.215C540.897 191.49 540.77 191.867 540.77 192.345V197.71H536.767V187.59H540.77V189.133C541.083 188.655 541.498 188.266 542.015 187.967C542.543 187.668 543.169 187.518 543.89 187.518Z" fill="white"/>
<path d="M548.98 191.34C548.98 190.084 549.232 188.966 549.737 187.985C550.254 187.004 550.987 186.244 551.937 185.706C552.887 185.156 554.005 184.88 555.291 184.88C556.397 184.88 557.383 185.09 558.248 185.508C559.126 185.915 559.835 186.495 560.376 187.249C560.929 188.003 561.296 188.882 561.476 189.887H557.256C557.064 189.468 556.788 189.145 556.427 188.918C556.078 188.679 555.676 188.559 555.219 188.559C554.546 188.559 554.011 188.81 553.614 189.313C553.229 189.815 553.037 190.491 553.037 191.34C553.037 192.19 553.229 192.865 553.614 193.368C554.011 193.87 554.546 194.122 555.219 194.122C555.676 194.122 556.078 194.008 556.427 193.781C556.788 193.541 557.064 193.212 557.256 192.794H561.476C561.296 193.799 560.929 194.678 560.376 195.431C559.835 196.185 559.126 196.771 558.248 197.19C557.383 197.597 556.397 197.8 555.291 197.8C554.005 197.8 552.887 197.531 551.937 196.993C550.987 196.442 550.254 195.677 549.737 194.696C549.232 193.715 548.98 192.596 548.98 191.34Z" fill="white"/>
<path d="M567.75 197.836C566.728 197.836 565.808 197.627 564.991 197.208C564.174 196.789 563.53 196.191 563.062 195.413C562.605 194.624 562.376 193.703 562.376 192.65C562.376 191.597 562.605 190.682 563.062 189.905C563.53 189.115 564.174 188.511 564.991 188.092C565.808 187.674 566.728 187.464 567.75 187.464C568.772 187.464 569.691 187.674 570.509 188.092C571.326 188.511 571.963 189.115 572.42 189.905C572.889 190.682 573.123 191.597 573.123 192.65C573.123 193.703 572.889 194.624 572.42 195.413C571.963 196.191 571.326 196.789 570.509 197.208C569.691 197.627 568.772 197.836 567.75 197.836ZM567.75 194.391C568.123 194.391 568.435 194.247 568.688 193.96C568.94 193.661 569.066 193.224 569.066 192.65C569.066 192.076 568.94 191.645 568.688 191.358C568.435 191.059 568.123 190.91 567.75 190.91C567.377 190.91 567.065 191.059 566.812 191.358C566.56 191.645 566.434 192.076 566.434 192.65C566.434 193.224 566.554 193.661 566.794 193.96C567.047 194.247 567.365 194.391 567.75 194.391Z" fill="white"/>
<path d="M581.504 187.518C582.67 187.518 583.577 187.907 584.227 188.684C584.888 189.462 585.218 190.515 585.218 191.843V197.71H581.233V192.345C581.233 191.867 581.101 191.49 580.837 191.215C580.584 190.927 580.241 190.784 579.809 190.784C579.364 190.784 579.015 190.927 578.763 191.215C578.51 191.49 578.384 191.867 578.384 192.345V197.71H574.381V187.59H578.384V189.133C578.697 188.655 579.111 188.266 579.628 187.967C580.157 187.668 580.782 187.518 581.504 187.518Z" fill="white"/>
<path d="M593.283 194.319V197.71H591.769C588.98 197.71 587.585 196.329 587.585 193.565V190.91H586.323V187.59H587.585V185.15H591.588V187.59H593.247V190.91H591.588V193.637C591.588 193.876 591.643 194.05 591.751 194.157C591.871 194.265 592.063 194.319 592.328 194.319H593.283Z" fill="white"/>
<path d="M598.811 189.456C599.22 188.87 599.719 188.403 600.308 188.056C600.897 187.698 601.51 187.518 602.147 187.518V191.771H601.011C600.254 191.771 599.695 191.902 599.334 192.166C598.985 192.429 598.811 192.895 598.811 193.565V197.71H594.808V187.59H598.811V189.456Z" fill="white"/>
<path d="M608.058 197.836C607.036 197.836 606.117 197.627 605.299 197.208C604.482 196.789 603.838 196.191 603.37 195.413C602.913 194.624 602.684 193.703 602.684 192.65C602.684 191.597 602.913 190.682 603.37 189.905C603.838 189.115 604.482 188.511 605.299 188.092C606.117 187.674 607.036 187.464 608.058 187.464C609.08 187.464 609.999 187.674 610.817 188.092C611.634 188.511 612.272 189.115 612.728 189.905C613.197 190.682 613.432 191.597 613.432 192.65C613.432 193.703 613.197 194.624 612.728 195.413C612.272 196.191 611.634 196.789 610.817 197.208C609.999 197.627 609.08 197.836 608.058 197.836ZM608.058 194.391C608.431 194.391 608.743 194.247 608.996 193.96C609.248 193.661 609.374 193.224 609.374 192.65C609.374 192.076 609.248 191.645 608.996 191.358C608.743 191.059 608.431 190.91 608.058 190.91C607.685 190.91 607.373 191.059 607.12 191.358C606.868 191.645 606.742 192.076 606.742 192.65C606.742 193.224 606.862 193.661 607.102 193.96C607.355 194.247 607.673 194.391 608.058 194.391Z" fill="white"/>
<path d="M618.692 184.432V197.71H614.689V184.432H618.692Z" fill="white"/>
<path d="M450.684 189.089C449.887 189.139 449.199 188.539 449.146 187.746C449.095 186.952 449.698 186.268 450.496 186.215C451.293 186.164 451.98 186.764 452.031 187.558C452.085 188.354 451.479 189.038 450.684 189.089Z" fill="white"/>
<path d="M461.763 181.364C459.723 177.579 455.711 175 451.104 175C446.534 175 442.55 177.537 440.496 181.269C439.679 181.107 438.842 181.022 437.989 181.031C434.729 181.053 431.683 182.346 429.406 184.673C427.209 186.919 426 189.896 426 193.053C426 196.21 427.209 199.188 429.409 201.436C429.477 201.507 429.547 201.577 429.618 201.644C431.815 203.786 433.855 204.936 436.811 204.936C441.265 204.936 443.125 203.834 445.652 196.796L445.649 196.681L444.396 196.191L444.289 196.149L444.173 196.104L441.575 195.086C441.595 195.036 441.615 194.988 441.634 194.94C441.637 194.932 441.64 194.923 441.646 194.915C441.663 194.879 441.677 194.842 441.694 194.806C441.699 194.794 441.702 194.783 441.71 194.772C441.73 194.73 441.75 194.691 441.77 194.649C441.77 194.643 441.775 194.637 441.778 194.632C441.801 194.587 441.823 194.545 441.846 194.5C441.871 194.452 441.896 194.407 441.922 194.36C441.944 194.318 441.97 194.279 441.992 194.236C442.018 194.197 442.04 194.161 442.063 194.124C442.074 194.105 442.088 194.085 442.099 194.068C442.119 194.037 442.139 194.007 442.158 193.979C442.17 193.962 442.181 193.945 442.192 193.931C442.206 193.914 442.218 193.894 442.232 193.878C442.251 193.85 442.271 193.824 442.288 193.796C442.333 193.737 442.381 193.676 442.426 193.617C442.44 193.6 442.454 193.583 442.466 193.569C442.494 193.536 442.522 193.502 442.55 193.468C442.581 193.432 442.609 193.401 442.64 193.364C442.64 193.362 442.643 193.362 442.643 193.362C442.674 193.328 442.702 193.297 442.733 193.266C442.745 193.252 442.759 193.238 442.773 193.224C442.798 193.199 442.823 193.174 442.849 193.146C442.883 193.115 442.914 193.084 442.945 193.053C442.964 193.036 442.981 193.02 442.998 193.003C443.114 192.899 443.229 192.798 443.35 192.706C443.384 192.678 443.421 192.65 443.457 192.624C443.466 192.616 443.474 192.61 443.483 192.605C443.517 192.582 443.548 192.56 443.581 192.537C443.598 192.523 443.615 192.512 443.632 192.501C443.66 192.481 443.688 192.462 443.719 192.442C443.739 192.428 443.756 192.417 443.776 192.406C443.793 192.394 443.81 192.383 443.826 192.372C443.857 192.352 443.886 192.333 443.919 192.316L443.956 192.293C443.99 192.274 444.024 192.254 444.057 192.235C444.145 192.187 444.235 192.139 444.325 192.094C444.37 192.072 444.415 192.052 444.46 192.03C444.505 192.007 444.551 191.988 444.596 191.968C444.641 191.949 444.689 191.929 444.734 191.909C444.77 191.895 444.807 191.879 444.846 191.864C444.866 191.856 444.886 191.848 444.906 191.842C444.942 191.828 444.976 191.817 445.013 191.803C445.013 191.803 445.015 191.803 445.018 191.803C445.066 192.605 445.19 193.297 445.308 193.807C445.435 194.354 445.554 194.688 445.562 194.716L445.559 194.679C445.559 194.668 445.556 194.66 445.556 194.649C445.548 194.545 445.542 194.436 445.539 194.329C445.537 194.273 445.534 194.217 445.531 194.161C445.528 194.049 445.523 193.934 445.523 193.816C445.523 193.757 445.52 193.695 445.52 193.636C445.52 193.566 445.52 193.496 445.52 193.423V193.381C445.52 193.342 445.52 193.303 445.523 193.261C445.525 193.008 445.534 192.745 445.548 192.473C445.559 192.271 445.573 192.064 445.593 191.853C445.599 191.78 445.607 191.707 445.613 191.635C445.748 190.297 446.055 188.797 446.661 187.272C448.596 182.385 452.955 181.757 452.955 181.757C452.955 181.757 455.711 185.172 453.775 190.062C453.471 190.824 453.119 191.531 452.741 192.181C452.364 192.832 451.958 193.426 451.549 193.962C451.445 194.099 451.338 194.236 451.231 194.365C451.2 194.402 451.172 194.438 451.144 194.475C451.073 194.559 451.003 194.64 450.935 194.721C450.853 194.817 450.772 194.909 450.693 195.002C450.65 195.047 450.611 195.092 450.572 195.136C450.532 195.181 450.493 195.223 450.45 195.265C450.25 195.481 450.056 195.683 449.87 195.865C449.833 195.905 449.797 195.938 449.757 195.975C449.718 196.011 449.684 196.045 449.647 196.079C449.611 196.115 449.574 196.149 449.54 196.182C449.518 196.205 449.495 196.224 449.473 196.244C449.509 196.227 450.002 195.969 450.676 195.476C451.036 195.212 451.448 194.881 451.87 194.486C451.87 194.489 451.873 194.492 451.876 194.494C451.879 194.5 451.882 194.506 451.885 194.514C451.896 194.534 451.907 194.553 451.916 194.57C451.93 194.598 451.944 194.623 451.955 194.651C451.972 194.682 451.986 194.713 452 194.744C452.006 194.752 452.009 194.761 452.011 194.769C452.028 194.806 452.045 194.842 452.062 194.879C452.07 194.895 452.076 194.909 452.082 194.926C452.096 194.957 452.107 194.988 452.121 195.021C452.2 195.212 452.268 195.408 452.324 195.607C452.333 195.638 452.341 195.666 452.347 195.697C452.355 195.722 452.361 195.75 452.369 195.776C452.375 195.795 452.38 195.815 452.383 195.835C452.392 195.868 452.4 195.902 452.406 195.938C452.411 195.958 452.417 195.978 452.42 196C452.426 196.031 452.434 196.059 452.44 196.093C452.445 196.118 452.451 196.143 452.454 196.168C452.473 196.272 452.49 196.376 452.502 196.479C452.507 196.53 452.513 196.58 452.518 196.631C452.524 196.681 452.527 196.732 452.53 196.782C452.535 196.875 452.541 196.97 452.541 197.063V197.107C452.541 197.152 452.541 197.194 452.541 197.239V197.245C452.541 197.29 452.538 197.335 452.535 197.379C452.535 197.391 452.535 197.405 452.535 197.416C452.533 197.458 452.53 197.5 452.527 197.545C452.524 197.59 452.521 197.632 452.516 197.677C452.513 197.693 452.513 197.707 452.51 197.724L452.496 197.85C452.496 197.853 452.496 197.853 452.496 197.853C452.49 197.904 452.482 197.954 452.473 198.007C452.473 198.013 452.473 198.019 452.471 198.024C452.465 198.061 452.459 198.1 452.451 198.136C452.448 198.156 452.445 198.176 452.44 198.195C452.431 198.24 452.423 198.282 452.414 198.327C452.403 198.375 452.392 198.42 452.383 198.464C452.369 198.515 452.358 198.565 452.344 198.619C452.33 198.666 452.316 198.714 452.302 198.759C452.302 198.764 452.299 198.77 452.299 198.776C452.285 198.821 452.271 198.863 452.256 198.905C452.254 198.916 452.248 198.927 452.245 198.938C452.234 198.975 452.22 199.014 452.206 199.053C452.203 199.062 452.2 199.067 452.197 199.076C452.18 199.123 452.161 199.174 452.141 199.221L449.43 198.159L449.411 198.15L448.087 197.632C447.861 197.895 445.187 204.98 449.14 204.98C452.414 204.98 458.926 205.07 458.926 205.07C465.589 205.07 471.01 199.676 471.01 193.045C471.01 187.393 467.063 182.635 461.763 181.364Z" fill="white"/>
</g>
</g>
<defs>
<filter id="filter0_f_11_2" x="256" y="-15" width="533" height="532" filterUnits="userSpaceOnUse" color-interpolation-filters="sRGB">
<feFlood flood-opacity="0" result="BackgroundImageFix"/>
<feBlend mode="normal" in="SourceGraphic" in2="BackgroundImageFix" result="shape"/>
<feGaussianBlur stdDeviation="25" result="effect1_foregroundBlur_11_2"/>
</filter>
<filter id="filter1_f_11_2" x="376" y="105" width="293" height="292" filterUnits="userSpaceOnUse" color-interpolation-filters="sRGB">
<feFlood flood-opacity="0" result="BackgroundImageFix"/>
<feBlend mode="normal" in="SourceGraphic" in2="BackgroundImageFix" result="shape"/>
<feGaussianBlur stdDeviation="25" result="effect1_foregroundBlur_11_2"/>
</filter>
<filter id="filter2_f_11_2" x="-167" y="-95" width="293" height="293" filterUnits="userSpaceOnUse" color-interpolation-filters="sRGB">
<feFlood flood-opacity="0" result="BackgroundImageFix"/>
<feBlend mode="normal" in="SourceGraphic" in2="BackgroundImageFix" result="shape"/>
<feGaussianBlur stdDeviation="25" result="effect1_foregroundBlur_11_2"/>
</filter>
<linearGradient id="paint0_linear_11_2" x1="522.5" y1="35" x2="522.5" y2="467" gradientUnits="userSpaceOnUse">
<stop stop-color="#3000E0"/>
<stop offset="1" stop-color="#C57AFF" stop-opacity="0"/>
</linearGradient>
<linearGradient id="paint1_linear_11_2" x1="-20.5" y1="-45" x2="-20.5" y2="148" gradientUnits="userSpaceOnUse">
<stop stop-color="#3000E0"/>
<stop offset="1" stop-color="#C57AFF" stop-opacity="0"/>
</linearGradient>
<clipPath id="clip0_11_2">
<rect width="641" height="219" fill="white"/>
</clipPath>
<clipPath id="clip1_11_2">
<rect width="193" height="30" fill="white" transform="translate(426 175)"/>
</clipPath>
</defs>
</svg>
