<svg width="685" height="107" viewBox="0 0 685 107" fill="none" xmlns="http://www.w3.org/2000/svg">
<g clip-path="url(#clip0_10_10)">
<path d="M230.664 35.688V81H216.52V58.408L209.544 81H197.384L190.408 58.408V81H176.2V35.688H193.608L203.592 62.888L213.32 35.688H230.664Z" fill="#0E003F"/>
<path d="M244.243 42.024C241.768 42.024 239.784 41.3627 238.291 40.04C236.798 38.7173 236.051 37.0533 236.051 35.048C236.051 33 236.798 31.3147 238.291 29.992C239.784 28.6267 241.768 27.944 244.243 27.944C246.675 27.944 248.638 28.6267 250.131 29.992C251.624 31.3147 252.371 33 252.371 35.048C252.371 37.0533 251.624 38.7173 250.131 40.04C248.638 41.3627 246.675 42.024 244.243 42.024ZM251.283 44.904V81H237.075V44.904H251.283Z" fill="#0E003F"/>
<path d="M273.764 81.448C270.351 81.448 267.321 80.8933 264.676 79.784C262.073 78.6747 260.004 77.1387 258.468 75.176C256.932 73.2133 256.057 70.9947 255.844 68.52H269.476C269.647 69.5867 270.095 70.376 270.82 70.888C271.588 71.4 272.548 71.656 273.7 71.656C274.425 71.656 275.001 71.5067 275.428 71.208C275.855 70.8667 276.068 70.4613 276.068 69.992C276.068 69.1813 275.62 68.6053 274.724 68.264C273.828 67.9227 272.313 67.5387 270.18 67.112C267.577 66.6 265.423 66.0453 263.716 65.448C262.052 64.8507 260.58 63.8267 259.3 62.376C258.063 60.9253 257.444 58.92 257.444 56.36C257.444 54.1413 258.02 52.136 259.172 50.344C260.367 48.5093 262.116 47.08 264.42 46.056C266.724 44.9893 269.519 44.456 272.804 44.456C277.668 44.456 281.465 45.6507 284.196 48.04C286.969 50.4293 288.633 53.544 289.188 57.384H276.58C276.367 56.4027 275.919 55.656 275.236 55.144C274.553 54.5893 273.636 54.312 272.484 54.312C271.759 54.312 271.204 54.4613 270.82 54.76C270.436 55.016 270.244 55.4213 270.244 55.976C270.244 56.7013 270.692 57.256 271.588 57.64C272.484 57.9813 273.913 58.344 275.876 58.728C278.479 59.24 280.676 59.816 282.468 60.456C284.26 61.096 285.817 62.2053 287.14 63.784C288.463 65.32 289.124 67.4533 289.124 70.184C289.124 72.3173 288.505 74.2373 287.268 75.944C286.031 77.6507 284.239 78.9947 281.892 79.976C279.588 80.9573 276.879 81.448 273.764 81.448Z" fill="#0E003F"/>
<path d="M310.826 81.448C307.413 81.448 304.384 80.8933 301.738 79.784C299.136 78.6747 297.066 77.1387 295.53 75.176C293.994 73.2133 293.12 70.9947 292.906 68.52H306.538C306.709 69.5867 307.157 70.376 307.882 70.888C308.65 71.4 309.61 71.656 310.762 71.656C311.488 71.656 312.064 71.5067 312.49 71.208C312.917 70.8667 313.13 70.4613 313.13 69.992C313.13 69.1813 312.682 68.6053 311.786 68.264C310.89 67.9227 309.376 67.5387 307.242 67.112C304.64 66.6 302.485 66.0453 300.778 65.448C299.114 64.8507 297.642 63.8267 296.362 62.376C295.125 60.9253 294.507 58.92 294.507 56.36C294.507 54.1413 295.082 52.136 296.234 50.344C297.429 48.5093 299.178 47.08 301.482 46.056C303.786 44.9893 306.581 44.456 309.867 44.456C314.731 44.456 318.528 45.6507 321.258 48.04C324.032 50.4293 325.696 53.544 326.251 57.384H313.643C313.429 56.4027 312.981 55.656 312.298 55.144C311.616 54.5893 310.698 54.312 309.546 54.312C308.821 54.312 308.266 54.4613 307.882 54.76C307.498 55.016 307.307 55.4213 307.307 55.976C307.307 56.7013 307.754 57.256 308.65 57.64C309.546 57.9813 310.976 58.344 312.938 58.728C315.541 59.24 317.739 59.816 319.531 60.456C321.323 61.096 322.88 62.2053 324.202 63.784C325.525 65.32 326.186 67.4533 326.186 70.184C326.186 72.3173 325.568 74.2373 324.331 75.944C323.093 77.6507 321.301 78.9947 318.954 79.976C316.65 80.9573 313.941 81.448 310.826 81.448Z" fill="#0E003F"/>
<path d="M338.993 42.024C336.518 42.024 334.534 41.3627 333.041 40.04C331.548 38.7173 330.801 37.0533 330.801 35.048C330.801 33 331.548 31.3147 333.041 29.992C334.534 28.6267 336.518 27.944 338.993 27.944C341.425 27.944 343.388 28.6267 344.881 29.992C346.374 31.3147 347.121 33 347.121 35.048C347.121 37.0533 346.374 38.7173 344.881 40.04C343.388 41.3627 341.425 42.024 338.993 42.024ZM346.033 44.904V81H331.825V44.904H346.033Z" fill="#0E003F"/>
<path d="M369.602 81.448C365.975 81.448 362.711 80.7013 359.81 79.208C356.909 77.7147 354.626 75.5813 352.962 72.808C351.341 69.992 350.53 66.7067 350.53 62.952C350.53 59.1973 351.341 55.9333 352.962 53.16C354.626 50.344 356.909 48.1893 359.81 46.696C362.711 45.2027 365.975 44.456 369.602 44.456C373.229 44.456 376.493 45.2027 379.394 46.696C382.295 48.1893 384.557 50.344 386.178 53.16C387.842 55.9333 388.674 59.1973 388.674 62.952C388.674 66.7067 387.842 69.992 386.178 72.808C384.557 75.5813 382.295 77.7147 379.394 79.208C376.493 80.7013 373.229 81.448 369.602 81.448ZM369.602 69.16C370.925 69.16 372.034 68.648 372.93 67.624C373.826 66.5573 374.274 65 374.274 62.952C374.274 60.904 373.826 59.368 372.93 58.344C372.034 57.2773 370.925 56.744 369.602 56.744C368.279 56.744 367.17 57.2773 366.274 58.344C365.378 59.368 364.93 60.904 364.93 62.952C364.93 65 365.357 66.5573 366.21 67.624C367.106 68.648 368.237 69.16 369.602 69.16Z" fill="#0E003F"/>
<path d="M418.417 44.648C422.556 44.648 425.777 46.0347 428.081 48.808C430.428 51.5813 431.602 55.336 431.602 60.072V81H417.458V61.864C417.458 60.1573 416.988 58.8133 416.049 57.832C415.153 56.808 413.938 56.296 412.402 56.296C410.823 56.296 409.585 56.808 408.689 57.832C407.793 58.8133 407.346 60.1573 407.346 61.864V81H393.137V44.904H407.346V50.408C408.455 48.7013 409.927 47.3147 411.762 46.248C413.639 45.1813 415.857 44.648 418.417 44.648Z" fill="#0E003F"/>
<path d="M436.482 58.28C436.482 53.8 437.378 49.8107 439.17 46.312C441.005 42.8133 443.608 40.104 446.979 38.184C450.349 36.2213 454.317 35.24 458.882 35.24C462.808 35.24 466.306 35.9867 469.378 37.48C472.493 38.9307 475.01 41 476.93 43.688C478.893 46.376 480.194 49.512 480.834 53.096H465.859C465.176 51.6027 464.195 50.4507 462.915 49.64C461.677 48.7867 460.248 48.36 458.627 48.36C456.237 48.36 454.338 49.256 452.93 51.048C451.565 52.84 450.882 55.2507 450.882 58.28C450.882 61.3093 451.565 63.72 452.93 65.512C454.338 67.304 456.237 68.2 458.627 68.2C460.248 68.2 461.677 67.7947 462.915 66.984C464.195 66.1307 465.176 64.9573 465.859 63.464H480.834C480.194 67.048 478.893 70.184 476.93 72.872C475.01 75.56 472.493 77.6507 469.378 79.144C466.306 80.5947 462.808 81.32 458.882 81.32C454.317 81.32 450.349 80.36 446.979 78.44C443.608 76.4773 441.005 73.7467 439.17 70.248C437.378 66.7493 436.482 62.76 436.482 58.28Z" fill="#0E003F"/>
<path d="M503.102 81.448C499.475 81.448 496.211 80.7013 493.31 79.208C490.409 77.7147 488.126 75.5813 486.462 72.808C484.841 69.992 484.03 66.7067 484.03 62.952C484.03 59.1973 484.841 55.9333 486.462 53.16C488.126 50.344 490.409 48.1893 493.31 46.696C496.211 45.2027 499.475 44.456 503.102 44.456C506.729 44.456 509.993 45.2027 512.894 46.696C515.795 48.1893 518.057 50.344 519.678 53.16C521.342 55.9333 522.174 59.1973 522.174 62.952C522.174 66.7067 521.342 69.992 519.678 72.808C518.057 75.5813 515.795 77.7147 512.894 79.208C509.993 80.7013 506.729 81.448 503.102 81.448ZM503.102 69.16C504.425 69.16 505.534 68.648 506.43 67.624C507.326 66.5573 507.774 65 507.774 62.952C507.774 60.904 507.326 59.368 506.43 58.344C505.534 57.2773 504.425 56.744 503.102 56.744C501.779 56.744 500.67 57.2773 499.774 58.344C498.878 59.368 498.43 60.904 498.43 62.952C498.43 65 498.857 66.5573 499.71 67.624C500.606 68.648 501.737 69.16 503.102 69.16Z" fill="#0E003F"/>
<path d="M551.917 44.648C556.056 44.648 559.277 46.0347 561.581 48.808C563.928 51.5813 565.101 55.336 565.101 60.072V81H550.958V61.864C550.958 60.1573 550.488 58.8133 549.549 57.832C548.653 56.808 547.438 56.296 545.902 56.296C544.323 56.296 543.085 56.808 542.189 57.832C541.293 58.8133 540.846 60.1573 540.846 61.864V81H526.637V44.904H540.846V50.408C541.955 48.7013 543.427 47.3147 545.261 46.248C547.139 45.1813 549.357 44.648 551.917 44.648Z" fill="#0E003F"/>
<path d="M593.726 68.904V81H588.351C578.452 81 573.502 76.072 573.502 66.216V56.744H569.023V44.904H573.502V36.2H587.71V44.904H593.598V56.744H587.71V66.472C587.71 67.3253 587.902 67.944 588.286 68.328C588.713 68.712 589.396 68.904 590.334 68.904H593.726Z" fill="#0E003F"/>
<path d="M613.346 51.56C614.796 49.4693 616.567 47.8053 618.657 46.568C620.748 45.288 622.924 44.648 625.186 44.648V59.816H621.153C618.465 59.816 616.481 60.2853 615.201 61.224C613.964 62.1627 613.346 63.8267 613.346 66.216V81H599.137V44.904H613.346V51.56Z" fill="#0E003F"/>
<path d="M646.165 81.448C642.538 81.448 639.274 80.7013 636.372 79.208C633.471 77.7147 631.188 75.5813 629.524 72.808C627.903 69.992 627.092 66.7067 627.092 62.952C627.092 59.1973 627.903 55.9333 629.524 53.16C631.188 50.344 633.471 48.1893 636.372 46.696C639.274 45.2027 642.538 44.456 646.165 44.456C649.791 44.456 653.055 45.2027 655.956 46.696C658.858 48.1893 661.119 50.344 662.74 53.16C664.404 55.9333 665.236 59.1973 665.236 62.952C665.236 66.7067 664.404 69.992 662.74 72.808C661.119 75.5813 658.858 77.7147 655.956 79.208C653.055 80.7013 649.791 81.448 646.165 81.448ZM646.165 69.16C647.487 69.16 648.597 68.648 649.493 67.624C650.389 66.5573 650.837 65 650.837 62.952C650.837 60.904 650.389 59.368 649.493 58.344C648.597 57.2773 647.487 56.744 646.165 56.744C644.842 56.744 643.733 57.2773 642.837 58.344C641.941 59.368 641.493 60.904 641.493 62.952C641.493 65 641.919 66.5573 642.773 67.624C643.669 68.648 644.799 69.16 646.165 69.16Z" fill="#0E003F"/>
<path d="M683.908 33.64V81H669.7V33.64H683.908Z" fill="#0E003F"/>
<path d="M87.61 50.25C84.78 50.43 82.34 48.29 82.15 45.46C81.97 42.63 84.11 40.19 86.94 40C89.77 39.82 92.21 41.96 92.39 44.79C92.58 47.63 90.43 50.07 87.61 50.25Z" fill="#3000E0"/>
<path d="M126.93 22.7C119.69 9.2 105.45 0 89.1 0C72.88 0 58.74 9.05 51.45 22.36C48.55 21.78 45.58 21.48 42.55 21.51C30.98 21.59 20.17 26.2 12.09 34.5C4.29 42.51 0 53.13 0 64.39C0 75.65 4.29 86.27 12.1 94.29C12.34 94.54 12.59 94.79 12.84 95.03C20.64 102.67 27.88 106.77 38.37 106.77C54.18 106.77 60.78 102.84 69.75 77.74L69.74 77.33L65.29 75.58L64.91 75.43L64.5 75.27L55.28 71.64C55.35 71.46 55.42 71.29 55.49 71.12C55.5 71.09 55.51 71.06 55.53 71.03C55.59 70.9 55.64 70.77 55.7 70.64C55.72 70.6 55.73 70.56 55.76 70.52C55.83 70.37 55.9 70.23 55.97 70.08C55.97 70.06 55.99 70.04 56 70.02C56.08 69.86 56.16 69.71 56.24 69.55C56.33 69.38 56.42 69.22 56.51 69.05C56.59 68.9 56.68 68.76 56.76 68.61C56.85 68.47 56.93 68.34 57.01 68.21C57.05 68.14 57.1 68.07 57.14 68.01C57.21 67.9 57.28 67.79 57.35 67.69C57.39 67.63 57.43 67.57 57.47 67.52C57.52 67.46 57.56 67.39 57.61 67.33C57.68 67.23 57.75 67.14 57.81 67.04C57.97 66.83 58.14 66.61 58.3 66.4C58.35 66.34 58.4 66.28 58.44 66.23C58.54 66.11 58.64 65.99 58.74 65.87C58.85 65.74 58.95 65.63 59.06 65.5C59.06 65.49 59.07 65.49 59.07 65.49C59.18 65.37 59.28 65.26 59.39 65.15C59.43 65.1 59.48 65.05 59.53 65C59.62 64.91 59.71 64.82 59.8 64.72C59.92 64.61 60.03 64.5 60.14 64.39C60.21 64.33 60.27 64.27 60.33 64.21C60.74 63.84 61.15 63.48 61.58 63.15C61.7 63.05 61.83 62.95 61.96 62.86C61.99 62.83 62.02 62.81 62.05 62.79C62.17 62.71 62.28 62.63 62.4 62.55C62.46 62.5 62.52 62.46 62.58 62.42C62.68 62.35 62.78 62.28 62.89 62.21C62.96 62.16 63.02 62.12 63.09 62.08C63.15 62.04 63.21 62 63.27 61.96C63.38 61.89 63.48 61.82 63.6 61.76L63.73 61.68C63.85 61.61 63.97 61.54 64.09 61.47C64.4 61.3 64.72 61.13 65.04 60.97C65.2 60.89 65.36 60.82 65.52 60.74C65.68 60.66 65.84 60.59 66 60.52C66.16 60.45 66.33 60.38 66.49 60.31C66.62 60.26 66.75 60.2 66.89 60.15C66.96 60.12 67.03 60.09 67.1 60.07C67.23 60.02 67.35 59.98 67.48 59.93C67.48 59.93 67.49 59.93 67.5 59.93C67.67 62.79 68.11 65.26 68.53 67.08C68.98 69.03 69.4 70.22 69.43 70.32L69.42 70.19C69.42 70.15 69.41 70.12 69.41 70.08C69.38 69.71 69.36 69.32 69.35 68.94C69.34 68.74 69.33 68.54 69.32 68.34C69.31 67.94 69.29 67.53 69.29 67.11C69.29 66.9 69.28 66.68 69.28 66.47C69.28 66.22 69.28 65.97 69.28 65.71V65.56C69.28 65.42 69.28 65.28 69.29 65.13C69.3 64.23 69.33 63.29 69.38 62.32C69.42 61.6 69.47 60.86 69.54 60.11C69.56 59.85 69.59 59.59 69.61 59.33C70.09 54.56 71.18 49.21 73.33 43.77C80.2 26.34 95.67 24.1 95.67 24.1C95.67 24.1 105.45 36.28 98.58 53.72C97.5 56.44 96.25 58.96 94.91 61.28C93.57 63.6 92.13 65.72 90.68 67.63C90.31 68.12 89.93 68.61 89.55 69.07C89.44 69.2 89.34 69.33 89.24 69.46C88.99 69.76 88.74 70.05 88.5 70.34C88.21 70.68 87.92 71.01 87.64 71.34C87.49 71.5 87.35 71.66 87.21 71.82C87.07 71.98 86.93 72.13 86.78 72.28C86.07 73.05 85.38 73.77 84.72 74.42C84.59 74.56 84.46 74.68 84.32 74.81C84.18 74.94 84.06 75.06 83.93 75.18C83.8 75.31 83.67 75.43 83.55 75.55C83.47 75.63 83.39 75.7 83.31 75.77C83.44 75.71 85.19 74.79 87.58 73.03C88.86 72.09 90.32 70.91 91.82 69.5C91.82 69.51 91.83 69.52 91.84 69.53C91.85 69.55 91.86 69.57 91.87 69.6C91.91 69.67 91.95 69.74 91.98 69.8C92.03 69.9 92.08 69.99 92.12 70.09C92.18 70.2 92.23 70.31 92.28 70.42C92.3 70.45 92.31 70.48 92.32 70.51C92.38 70.64 92.44 70.77 92.5 70.9C92.53 70.96 92.55 71.01 92.57 71.07C92.62 71.18 92.66 71.29 92.71 71.41C92.99 72.09 93.23 72.79 93.43 73.5C93.46 73.61 93.49 73.71 93.51 73.82C93.54 73.91 93.56 74.01 93.59 74.1C93.61 74.17 93.63 74.24 93.64 74.31C93.67 74.43 93.7 74.55 93.72 74.68C93.74 74.75 93.76 74.82 93.77 74.9C93.79 75.01 93.82 75.11 93.84 75.23C93.86 75.32 93.88 75.41 93.89 75.5C93.96 75.87 94.02 76.24 94.06 76.61C94.08 76.79 94.1 76.97 94.12 77.15C94.14 77.33 94.15 77.51 94.16 77.69C94.18 78.02 94.2 78.36 94.2 78.69V78.85C94.2 79.01 94.2 79.16 94.2 79.32V79.34C94.2 79.5 94.19 79.66 94.18 79.82C94.18 79.86 94.18 79.91 94.18 79.95C94.17 80.1 94.16 80.25 94.15 80.41C94.14 80.57 94.13 80.72 94.11 80.88C94.1 80.94 94.1 80.99 94.09 81.05L94.04 81.5C94.04 81.51 94.04 81.51 94.04 81.51C94.02 81.69 93.99 81.87 93.96 82.06C93.96 82.08 93.96 82.1 93.95 82.12C93.93 82.25 93.91 82.39 93.88 82.52C93.87 82.59 93.86 82.66 93.84 82.73C93.81 82.89 93.78 83.04 93.75 83.2C93.71 83.37 93.67 83.53 93.64 83.69C93.59 83.87 93.55 84.05 93.5 84.24C93.45 84.41 93.4 84.58 93.35 84.74C93.35 84.76 93.34 84.78 93.34 84.8C93.29 84.96 93.24 85.11 93.19 85.26C93.18 85.3 93.16 85.34 93.15 85.38C93.11 85.51 93.06 85.65 93.01 85.79C93 85.82 92.99 85.84 92.98 85.87C92.92 86.04 92.85 86.22 92.78 86.39L83.16 82.6L83.09 82.57L78.39 80.72C77.59 81.66 68.1 106.93 82.13 106.93C93.75 106.93 116.86 107.25 116.86 107.25C140.51 107.25 159.75 88.01 159.75 64.36C159.75 44.2 145.74 27.23 126.93 22.7Z" fill="#3000E0"/>
</g>
<defs>
<clipPath id="clip0_10_10">
<rect width="685" height="107" fill="white"/>
</clipPath>
</defs>
</svg>
