<svg width="437" height="68" viewBox="0 0 437 68" fill="none" xmlns="http://www.w3.org/2000/svg">
<g clip-path="url(#clip0_12_20)">
<path d="M147.154 22.6802V51.4766H138.13V37.1191L133.68 51.4766H125.922L121.472 37.1191V51.4766H112.408V22.6802H123.513L129.883 39.9662L136.089 22.6802H147.154Z" fill="white"/>
<path d="M155.816 26.7068C154.238 26.7068 152.972 26.2865 152.019 25.446C151.067 24.6054 150.59 23.5479 150.59 22.2735C150.59 20.9719 151.067 19.9009 152.019 19.0603C152.972 18.1926 154.238 17.7588 155.816 17.7588C157.368 17.7588 158.62 18.1926 159.573 19.0603C160.525 19.9009 161.002 20.9719 161.002 22.2735C161.002 23.5479 160.525 24.6054 159.573 25.446C158.62 26.2865 157.368 26.7068 155.816 26.7068ZM160.308 28.5371V51.4766H151.243V28.5371H160.308Z" fill="white"/>
<path d="M174.649 51.7613C172.472 51.7613 170.539 51.4088 168.852 50.7038C167.191 49.9988 165.871 49.0227 164.891 47.7754C163.911 46.5281 163.353 45.1181 163.217 43.5454H171.914C172.023 44.2233 172.309 44.7249 172.771 45.0503C173.261 45.3757 173.874 45.5384 174.609 45.5384C175.071 45.5384 175.439 45.4435 175.711 45.2537C175.983 45.0367 176.119 44.7792 176.119 44.4809C176.119 43.9657 175.834 43.5996 175.262 43.3827C174.69 43.1658 173.724 42.9218 172.363 42.6506C170.703 42.3252 169.328 41.9727 168.239 41.5931C167.178 41.2135 166.239 40.5627 165.422 39.6408C164.633 38.7189 164.238 37.4445 164.238 35.8176C164.238 34.4076 164.605 33.1331 165.34 31.9943C166.103 30.8283 167.219 29.92 168.688 29.2692C170.158 28.5913 171.941 28.2524 174.037 28.2524C177.14 28.2524 179.563 29.0116 181.305 30.5301C183.074 32.0485 184.135 34.028 184.489 36.4683H176.446C176.31 35.8447 176.024 35.3702 175.589 35.0448C175.153 34.6923 174.568 34.516 173.833 34.516C173.37 34.516 173.016 34.6109 172.771 34.8007C172.526 34.9634 172.404 35.221 172.404 35.5735C172.404 36.0345 172.69 36.387 173.261 36.631C173.833 36.8479 174.745 37.0784 175.997 37.3225C177.657 37.6478 179.059 38.0139 180.202 38.4206C181.345 38.8274 182.339 39.5323 183.183 40.5356C184.027 41.5118 184.448 42.8675 184.448 44.6029C184.448 45.9587 184.054 47.1789 183.264 48.2635C182.475 49.3481 181.332 50.2022 179.835 50.8259C178.365 51.4495 176.636 51.7613 174.649 51.7613Z" fill="white"/>
<path d="M198.294 51.7613C196.116 51.7613 194.184 51.4088 192.496 50.7038C190.836 49.9988 189.515 49.0227 188.536 47.7754C187.556 46.5281 186.998 45.1181 186.862 43.5454H195.558C195.667 44.2233 195.953 44.7249 196.416 45.0503C196.906 45.3757 197.518 45.5384 198.253 45.5384C198.716 45.5384 199.083 45.4435 199.355 45.2537C199.627 45.0367 199.764 44.7792 199.764 44.4809C199.764 43.9657 199.478 43.5996 198.906 43.3827C198.335 43.1658 197.368 42.9218 196.007 42.6506C194.347 42.3252 192.972 41.9727 191.884 41.5931C190.822 41.2135 189.883 40.5627 189.066 39.6408C188.277 38.7189 187.882 37.4445 187.882 35.8176C187.882 34.4076 188.25 33.1331 188.985 31.9943C189.747 30.8283 190.863 29.92 192.333 29.2692C193.802 28.5913 195.585 28.2524 197.681 28.2524C200.784 28.2524 203.207 29.0116 204.949 30.5301C206.718 32.0485 207.78 34.028 208.134 36.4683H200.09C199.954 35.8447 199.668 35.3702 199.233 35.0448C198.797 34.6923 198.212 34.516 197.477 34.516C197.014 34.516 196.661 34.6109 196.416 34.8007C196.171 34.9634 196.048 35.221 196.048 35.5735C196.048 36.0345 196.334 36.387 196.906 36.631C197.477 36.8479 198.389 37.0784 199.641 37.3225C201.301 37.6478 202.703 38.0139 203.846 38.4206C204.99 38.8274 205.983 39.5323 206.827 40.5356C207.671 41.5118 208.093 42.8675 208.093 44.6029C208.093 45.9587 207.698 47.1789 206.909 48.2635C206.119 49.3481 204.976 50.2022 203.479 50.8259C202.009 51.4495 200.281 51.7613 198.294 51.7613Z" fill="white"/>
<path d="M216.263 26.7068C214.684 26.7068 213.418 26.2865 212.466 25.446C211.513 24.6054 211.037 23.5479 211.037 22.2735C211.037 20.9719 211.513 19.9009 212.466 19.0603C213.418 18.1926 214.684 17.7588 216.263 17.7588C217.814 17.7588 219.066 18.1926 220.019 19.0603C220.972 19.9009 221.448 20.9719 221.448 22.2735C221.448 23.5479 220.972 24.6054 220.019 25.446C219.066 26.2865 217.814 26.7068 216.263 26.7068ZM220.754 28.5371V51.4766H211.69V28.5371H220.754Z" fill="white"/>
<path d="M235.79 51.7613C233.476 51.7613 231.394 51.2868 229.543 50.3378C227.692 49.3887 226.236 48.033 225.174 46.2705C224.14 44.4809 223.623 42.393 223.623 40.0069C223.623 37.6207 224.14 35.5464 225.174 33.7839C226.236 31.9943 227.692 30.625 229.543 29.676C231.394 28.7269 233.476 28.2524 235.79 28.2524C238.104 28.2524 240.186 28.7269 242.037 29.676C243.888 30.625 245.33 31.9943 246.365 33.7839C247.426 35.5464 247.957 37.6207 247.957 40.0069C247.957 42.393 247.426 44.4809 246.365 46.2705C245.33 48.033 243.888 49.3887 242.037 50.3378C240.186 51.2868 238.104 51.7613 235.79 51.7613ZM235.79 43.9521C236.634 43.9521 237.341 43.6268 237.913 42.976C238.485 42.2981 238.77 41.3084 238.77 40.0069C238.77 38.7053 238.485 37.7292 237.913 37.0784C237.341 36.4005 236.634 36.0616 235.79 36.0616C234.946 36.0616 234.238 36.4005 233.667 37.0784C233.095 37.7292 232.809 38.7053 232.809 40.0069C232.809 41.3084 233.082 42.2981 233.626 42.976C234.198 43.6268 234.919 43.9521 235.79 43.9521Z" fill="white"/>
<path d="M266.932 28.3744C269.572 28.3744 271.627 29.2557 273.097 31.0182C274.594 32.7806 275.343 35.1668 275.343 38.1766V51.4766H266.32V39.3154C266.32 38.2308 266.02 37.3767 265.421 36.753C264.85 36.1023 264.074 35.7769 263.094 35.7769C262.087 35.7769 261.298 36.1023 260.726 36.753C260.154 37.3767 259.869 38.2308 259.869 39.3154V51.4766H250.805V28.5371H259.869V32.035C260.576 30.9504 261.515 30.0691 262.686 29.3912C263.883 28.7134 265.299 28.3744 266.932 28.3744Z" fill="white"/>
<path d="M278.457 37.0377C278.457 34.1906 279.028 31.6554 280.172 29.4319C281.342 27.2085 283.002 25.4866 285.153 24.2665C287.303 23.0192 289.834 22.3955 292.747 22.3955C295.251 22.3955 297.483 22.87 299.443 23.8191C301.43 24.741 303.036 26.0561 304.261 27.7643C305.513 29.4726 306.343 31.4656 306.751 33.7432H297.197C296.762 32.7942 296.136 32.0621 295.319 31.5469C294.53 31.0046 293.618 30.7334 292.584 30.7334C291.059 30.7334 289.848 31.3029 288.95 32.4417C288.079 33.5805 287.643 35.1126 287.643 37.0377C287.643 38.9629 288.079 40.4949 288.95 41.6338C289.848 42.7726 291.059 43.342 292.584 43.342C293.618 43.342 294.53 43.0844 295.319 42.5693C296.136 42.027 296.762 41.2813 297.197 40.3323H306.751C306.343 42.6099 305.513 44.6029 304.261 46.3112C303.036 48.0194 301.43 49.3481 299.443 50.2971C297.483 51.219 295.251 51.68 292.747 51.68C289.834 51.68 287.303 51.0699 285.153 49.8497C283.002 48.6024 281.342 46.867 280.172 44.6436C279.028 42.4201 278.457 39.8848 278.457 37.0377Z" fill="white"/>
<path d="M320.957 51.7613C318.643 51.7613 316.561 51.2868 314.71 50.3378C312.859 49.3887 311.403 48.033 310.341 46.2705C309.307 44.4809 308.79 42.393 308.79 40.0069C308.79 37.6207 309.307 35.5464 310.341 33.7839C311.403 31.9943 312.859 30.625 314.71 29.676C316.561 28.7269 318.643 28.2524 320.957 28.2524C323.271 28.2524 325.353 28.7269 327.204 29.676C329.055 30.625 330.497 31.9943 331.532 33.7839C332.593 35.5464 333.124 37.6207 333.124 40.0069C333.124 42.393 332.593 44.4809 331.532 46.2705C330.497 48.033 329.055 49.3887 327.204 50.3378C325.353 51.2868 323.271 51.7613 320.957 51.7613ZM320.957 43.9521C321.801 43.9521 322.509 43.6268 323.08 42.976C323.652 42.2981 323.938 41.3084 323.938 40.0069C323.938 38.7053 323.652 37.7292 323.08 37.0784C322.509 36.4005 321.801 36.0616 320.957 36.0616C320.113 36.0616 319.406 36.4005 318.834 37.0784C318.262 37.7292 317.977 38.7053 317.977 40.0069C317.977 41.3084 318.249 42.2981 318.793 42.976C319.365 43.6268 320.086 43.9521 320.957 43.9521Z" fill="white"/>
<path d="M352.099 28.3744C354.74 28.3744 356.795 29.2557 358.264 31.0182C359.761 32.7806 360.51 35.1668 360.51 38.1766V51.4766H351.487V39.3154C351.487 38.2308 351.187 37.3767 350.589 36.753C350.017 36.1023 349.241 35.7769 348.261 35.7769C347.254 35.7769 346.465 36.1023 345.893 36.753C345.322 37.3767 345.036 38.2308 345.036 39.3154V51.4766H335.972V28.5371H345.036V32.035C345.743 30.9504 346.683 30.0691 347.853 29.3912C349.051 28.7134 350.466 28.3744 352.099 28.3744Z" fill="white"/>
<path d="M378.772 43.7894V51.4766H375.342C369.027 51.4766 365.869 48.3448 365.869 42.0812V36.0616H363.011V28.5371H365.869V23.0056H374.934V28.5371H378.69V36.0616H374.934V42.2439C374.934 42.7862 375.056 43.1794 375.301 43.4234C375.573 43.6674 376.009 43.7894 376.608 43.7894H378.772Z" fill="white"/>
<path d="M391.288 32.7671C392.213 31.4384 393.343 30.3809 394.676 29.5946C396.01 28.7811 397.398 28.3744 398.841 28.3744V38.0139H396.269C394.554 38.0139 393.288 38.3122 392.472 38.9087C391.682 39.5052 391.288 40.5627 391.288 42.0812V51.4766H382.224V28.5371H391.288V32.7671Z" fill="white"/>
<path d="M412.225 51.7613C409.911 51.7613 407.829 51.2868 405.978 50.3378C404.127 49.3887 402.671 48.033 401.609 46.2705C400.575 44.4809 400.058 42.393 400.058 40.0069C400.058 37.6207 400.575 35.5464 401.609 33.7839C402.671 31.9943 404.127 30.625 405.978 29.676C407.829 28.7269 409.911 28.2524 412.225 28.2524C414.538 28.2524 416.621 28.7269 418.472 29.676C420.322 30.625 421.765 31.9943 422.799 33.7839C423.861 35.5464 424.392 37.6207 424.392 40.0069C424.392 42.393 423.861 44.4809 422.799 46.2705C421.765 48.033 420.322 49.3887 418.472 50.3378C416.621 51.2868 414.538 51.7613 412.225 51.7613ZM412.225 43.9521C413.068 43.9521 413.776 43.6268 414.348 42.976C414.919 42.2981 415.205 41.3084 415.205 40.0069C415.205 38.7053 414.919 37.7292 414.348 37.0784C413.776 36.4005 413.068 36.0616 412.225 36.0616C411.381 36.0616 410.673 36.4005 410.102 37.0784C409.53 37.7292 409.244 38.7053 409.244 40.0069C409.244 41.3084 409.516 42.2981 410.061 42.976C410.632 43.6268 411.354 43.9521 412.225 43.9521Z" fill="white"/>
<path d="M436.303 21.3787V51.4766H427.239V21.3787H436.303Z" fill="white"/>
<path d="M55.8914 31.9346C54.0859 32.0489 52.5293 30.6889 52.4081 28.8904C52.2933 27.0919 53.6585 25.5413 55.4639 25.4205C57.2693 25.3061 58.8259 26.6661 58.9408 28.4646C59.062 30.2695 57.6904 31.8202 55.8914 31.9346Z" fill="white"/>
<path d="M80.9758 14.4262C76.357 5.84673 67.2725 0 56.8419 0C46.4943 0 37.4736 5.7514 32.8228 14.2101C30.9728 13.8415 29.078 13.6508 27.145 13.6699C19.7639 13.7207 12.8676 16.6505 7.71289 21.9252C2.73683 27.0157 0 33.7649 0 40.9207C0 48.0766 2.73683 54.8258 7.71927 59.9226C7.87238 60.0815 8.03187 60.2404 8.19136 60.3929C13.1674 65.2482 17.7862 67.8538 24.4784 67.8538C34.5645 67.8538 38.775 65.3563 44.4974 49.4049L44.4911 49.1443L41.6522 48.0321L41.4097 47.9368L41.1482 47.8351L35.2662 45.5282C35.3109 45.4138 35.3555 45.3058 35.4002 45.1978C35.4066 45.1787 35.413 45.1596 35.4257 45.1406C35.464 45.0579 35.4959 44.9753 35.5342 44.8927C35.5469 44.8673 35.5533 44.8419 35.5724 44.8164C35.6171 44.7211 35.6618 44.6321 35.7064 44.5368C35.7064 44.5241 35.7192 44.5114 35.7256 44.4987C35.7766 44.397 35.8276 44.3017 35.8787 44.2C35.9361 44.092 35.9935 43.9903 36.0509 43.8822C36.1019 43.7869 36.1594 43.6979 36.2104 43.6026C36.2678 43.5136 36.3188 43.431 36.3699 43.3484C36.3954 43.3039 36.4273 43.2594 36.4528 43.2213C36.4975 43.1514 36.5421 43.0815 36.5868 43.0179C36.6123 42.9798 36.6378 42.9417 36.6633 42.9099C36.6952 42.8718 36.7208 42.8273 36.7527 42.7892C36.7973 42.7256 36.842 42.6684 36.8803 42.6049C36.9823 42.4714 37.0908 42.3316 37.1928 42.1981C37.2247 42.16 37.2566 42.1219 37.2822 42.0901C37.346 42.0138 37.4098 41.9376 37.4736 41.8613C37.5437 41.7787 37.6075 41.7088 37.6777 41.6262C37.6777 41.6198 37.6841 41.6198 37.6841 41.6198C37.7542 41.5435 37.818 41.4736 37.8882 41.4037C37.9137 41.372 37.9456 41.3402 37.9775 41.3084C38.035 41.2512 38.0924 41.194 38.1498 41.1305C38.2263 41.0606 38.2965 40.9907 38.3667 40.9207C38.4113 40.8826 38.4496 40.8445 38.4879 40.8064C38.7495 40.5712 39.011 40.3424 39.2853 40.1327C39.3619 40.0692 39.4448 40.0056 39.5278 39.9484C39.5469 39.9293 39.566 39.9166 39.5852 39.9039C39.6617 39.8531 39.7319 39.8022 39.8085 39.7514C39.8467 39.7196 39.885 39.6942 39.9233 39.6688C39.9871 39.6243 40.0509 39.5798 40.1211 39.5353C40.1657 39.5035 40.204 39.4781 40.2487 39.4527C40.2869 39.4273 40.3252 39.4019 40.3635 39.3764C40.4337 39.332 40.4975 39.2875 40.574 39.2493L40.657 39.1985C40.7335 39.154 40.8101 39.1095 40.8866 39.065C41.0844 38.957 41.2885 38.849 41.4927 38.7473C41.5947 38.6964 41.6968 38.652 41.7989 38.6011C41.901 38.5503 42.003 38.5058 42.1051 38.4613C42.2072 38.4168 42.3156 38.3723 42.4177 38.3278C42.5006 38.2961 42.5836 38.2579 42.6729 38.2262C42.7176 38.2071 42.7622 38.188 42.8069 38.1753C42.8898 38.1435 42.9664 38.1181 43.0493 38.0864C43.0493 38.0864 43.0557 38.0864 43.062 38.0864C43.1705 39.9039 43.4512 41.4736 43.7191 42.6303C44.0062 43.8695 44.2742 44.6258 44.2933 44.6893L44.2869 44.6067C44.2869 44.5813 44.2805 44.5622 44.2805 44.5368C44.2614 44.3017 44.2486 44.0538 44.2423 43.8123C44.2359 43.6852 44.2295 43.5581 44.2231 43.431C44.2167 43.1768 44.204 42.9163 44.204 42.6493C44.204 42.5159 44.1976 42.3761 44.1976 42.2426C44.1976 42.0837 44.1976 41.9249 44.1976 41.7596V41.6643C44.1976 41.5753 44.1976 41.4864 44.204 41.391C44.2104 40.8191 44.2295 40.2217 44.2614 39.6052C44.2869 39.1477 44.3188 38.6774 44.3635 38.2007C44.3762 38.0355 44.3954 37.8703 44.4081 37.705C44.7144 34.6736 45.4097 31.2736 46.7813 27.8164C51.1641 16.7394 61.0333 15.3159 61.0333 15.3159C61.0333 15.3159 67.2725 23.0564 62.8897 34.1398C62.2007 35.8684 61.4033 37.4699 60.5484 38.9443C59.6936 40.4187 58.7749 41.766 57.8499 42.9798C57.6138 43.2912 57.3714 43.6026 57.129 43.895C57.0588 43.9776 56.995 44.0602 56.9312 44.1428C56.7717 44.3335 56.6122 44.5177 56.4591 44.702C56.2741 44.9181 56.0891 45.1278 55.9105 45.3376C55.8148 45.4392 55.7255 45.5409 55.6362 45.6426C55.5469 45.7443 55.4575 45.8396 55.3618 45.9349C54.9089 46.4243 54.4687 46.8819 54.0477 47.2949C53.9647 47.3839 53.8818 47.4602 53.7925 47.5428C53.7032 47.6254 53.6266 47.7017 53.5437 47.7779C53.4607 47.8606 53.3778 47.9368 53.3012 48.0131C53.2502 48.0639 53.1992 48.1084 53.1481 48.1529C53.2311 48.1148 54.3475 47.5301 55.8722 46.4116C56.6888 45.8142 57.6202 45.0643 58.5771 44.1682C58.5771 44.1746 58.5835 44.1809 58.5899 44.1873C58.5963 44.2 58.6027 44.2127 58.609 44.2318C58.6346 44.2763 58.6601 44.3207 58.6792 44.3589C58.7111 44.4224 58.743 44.4796 58.7685 44.5432C58.8068 44.6131 58.8387 44.683 58.8706 44.7529C58.8834 44.772 58.8897 44.791 58.8961 44.8101C58.9344 44.8927 58.9727 44.9753 59.011 45.0579C59.0301 45.0961 59.0429 45.1278 59.0556 45.166C59.0875 45.2359 59.113 45.3058 59.1449 45.3821C59.3236 45.8142 59.4767 46.2591 59.6043 46.7103C59.6234 46.7802 59.6425 46.8437 59.6553 46.9136C59.6744 46.9708 59.6872 47.0344 59.7063 47.0916C59.7191 47.1361 59.7318 47.1806 59.7382 47.225C59.7574 47.3013 59.7765 47.3776 59.7893 47.4602C59.802 47.5047 59.8148 47.5492 59.8212 47.6C59.8339 47.6699 59.8531 47.7335 59.8658 47.8097C59.8786 47.8669 59.8913 47.9241 59.8977 47.9813C59.9424 48.2164 59.9806 48.4516 60.0062 48.6867C60.0189 48.8011 60.0317 48.9155 60.0444 49.0299C60.0572 49.1443 60.0636 49.2587 60.07 49.3731C60.0827 49.5828 60.0955 49.7989 60.0955 50.0086V50.1103C60.0955 50.212 60.0955 50.3073 60.0955 50.409V50.4217C60.0955 50.5234 60.0891 50.625 60.0827 50.7267C60.0827 50.7521 60.0827 50.7839 60.0827 50.8093C60.0763 50.9047 60.07 51 60.0636 51.1017C60.0572 51.2034 60.0508 51.2987 60.0381 51.4004C60.0317 51.4385 60.0317 51.4703 60.0253 51.5084L59.9934 51.7944C59.9934 51.8007 59.9934 51.8007 59.9934 51.8007C59.9806 51.9151 59.9615 52.0295 59.9424 52.1503C59.9424 52.163 59.9424 52.1757 59.936 52.1884C59.9232 52.271 59.9105 52.36 59.8913 52.4426C59.885 52.4871 59.8786 52.5316 59.8658 52.5761C59.8467 52.6778 59.8275 52.7731 59.8084 52.8748C59.7829 52.9828 59.7574 53.0845 59.7382 53.1862C59.7063 53.3006 59.6808 53.4149 59.6489 53.5357C59.617 53.6437 59.5851 53.7518 59.5532 53.8535C59.5532 53.8662 59.5468 53.8789 59.5468 53.8916C59.5149 53.9933 59.483 54.0886 59.4511 54.1839C59.4448 54.2093 59.432 54.2348 59.4256 54.2602C59.4001 54.3428 59.3682 54.4318 59.3363 54.5207C59.3299 54.5398 59.3236 54.5525 59.3172 54.5716C59.2789 54.6796 59.2342 54.794 59.1896 54.9021L53.0524 52.4935L53.0078 52.4744L50.0094 51.2987C49.499 51.8961 43.4448 67.9555 52.3953 67.9555C59.8084 67.9555 74.5516 68.1589 74.5516 68.1589C89.6392 68.1589 101.914 55.9316 101.914 40.9017C101.914 28.0897 92.9757 17.305 80.9758 14.4262Z" fill="white"/>
</g>
<defs>
<clipPath id="clip0_12_20">
<rect width="437" height="68" fill="white"/>
</clipPath>
</defs>
</svg>
